<svg preserveAspectRatio="none" width="100%" height="100%" overflow="visible" style="display: block;" viewBox="0 0 31.6124 18.7743" fill="none" xmlns="http://www.w3.org/2000/svg">
<g id="Group">
<path id="Vector" fill-rule="evenodd" clip-rule="evenodd" d="M30.8872 1.27117C31.107 0.538466 30.8872 1.19209e-07 29.8415 1.19209e-07H26.3831C25.5036 1.19209e-07 25.0982 0.465055 24.8787 0.978231C24.8787 0.978231 23.1196 5.26489 20.6282 8.0496C19.8224 8.85572 19.4561 9.11248 19.016 9.11248C18.7964 9.11248 18.4782 8.85572 18.4782 8.12336V1.27117C18.4782 0.391995 18.2228 1.19209e-07 17.4901 1.19209e-07H12.0549C11.5055 1.19209e-07 11.1747 0.408153 11.1747 0.79523C11.1747 1.62875 12.4206 1.82123 12.5491 4.16618V9.25895C12.5491 10.3756 12.3475 10.5786 11.9077 10.5786C10.7356 10.5786 7.88345 6.27227 6.19183 1.34494C5.86025 0.387078 5.52797 0.000351176 4.64423 0.000351176H1.18582C0.197403 -7.37548e-08 0 0.465055 0 0.97788C0 1.89394 1.17212 6.43736 5.45913 12.4462C8.3169 16.5495 12.3433 18.7743 16.0075 18.7743C18.2056 18.7743 18.4779 18.2801 18.4779 17.429V14.3278C18.4779 13.3394 18.6861 13.1424 19.3823 13.1424C19.8952 13.1424 20.7743 13.3984 22.8263 15.377C25.1713 17.722 25.5577 18.774 26.8769 18.774H30.3354C31.3231 18.774 31.8173 18.2798 31.5324 17.305C31.2202 16.3331 30.1007 14.9232 28.6153 13.2523C27.8092 12.2997 26.5998 11.2737 26.2335 10.7605C25.7203 10.1012 25.8671 9.8083 26.2335 9.22172C26.2335 9.22172 30.4478 3.28629 30.8872 1.27117Z" fill="var(--fill-0, white)"/>
</g>
</svg>
