<svg preserveAspectRatio="none" width="100%" height="100%" overflow="visible" style="display: block;" viewBox="0 0 20 20" fill="none" xmlns="http://www.w3.org/2000/svg">
<g id="Icon">
<path id="Vector" d="M1.7181 10.29C1.64865 10.1029 1.64865 9.8971 1.7181 9.71C2.39452 8.06988 3.5427 6.66753 5.01708 5.68075C6.49146 4.69397 8.22564 4.16718 9.99977 4.16718C11.7739 4.16718 13.5081 4.69397 14.9825 5.68075C16.4568 6.66753 17.605 8.06988 18.2814 9.71C18.3509 9.8971 18.3509 10.1029 18.2814 10.29C17.605 11.9301 16.4568 13.3325 14.9825 14.3193C13.5081 15.306 11.7739 15.8328 9.99977 15.8328C8.22564 15.8328 6.49146 15.306 5.01708 14.3193C3.5427 13.3325 2.39452 11.9301 1.7181 10.29Z" stroke="var(--stroke-0, white)" stroke-width="1.66667" stroke-linecap="round" stroke-linejoin="round"/>
<path id="Vector_2" d="M10 12.5C11.3807 12.5 12.5 11.3807 12.5 10C12.5 8.61929 11.3807 7.5 10 7.5C8.61929 7.5 7.5 8.61929 7.5 10C7.5 11.3807 8.61929 12.5 10 12.5Z" stroke="var(--stroke-0, white)" stroke-width="1.66667" stroke-linecap="round" stroke-linejoin="round"/>
</g>
</svg>
