<svg preserveAspectRatio="none" width="100%" height="100%" overflow="visible" style="display: block;" viewBox="0 0 350.062 62" fill="none" xmlns="http://www.w3.org/2000/svg">
<g id="SPBRSI_logo 1">
<g id="Group 7">
<path id="Vector" d="M0 3.87683V53.3814C0 56.1476 2.25744 58.405 5.02359 58.405H20.1262C21.5887 58.6276 22.9241 59.4861 23.7508 60.7261L24.5456 61.9343L25.3405 60.7261C26.1672 59.4861 27.4708 58.6276 28.9333 58.405H43.6861C46.4523 58.405 48.7097 56.1476 48.7097 53.3814V3.87683H0ZM43.7179 56.4655H28.9015H28.7744C27.1846 56.7199 25.6903 57.483 24.5774 58.6594C23.4646 57.5148 21.9385 56.7199 20.3487 56.4655H5.02359C3.30667 56.4655 1.93949 55.0984 1.93949 53.3814V5.81628H46.802V53.3814C46.802 55.0984 45.4349 56.4655 43.7179 56.4655Z" fill="var(--fill-0, white)"/>
<path id="Vector_2" d="M23.2426 33.5722C23.2744 33.604 23.3061 33.6358 23.3379 33.6676L23.2426 33.5722ZM16.7246 42.8245C19.0138 40.5671 21.3031 38.2779 23.5923 35.9886C23.6241 35.9568 23.6559 35.925 23.6877 35.8932L16.7246 42.8245Z" fill="var(--fill-0, white)"/>
<path id="Vector_3" d="M41.6192 26.036C41.3649 23.6196 39.6479 22.0617 37.2315 21.9345C36.5638 21.9027 36.5002 21.8073 36.4684 21.1715C36.3731 19.3591 35.5464 17.9602 33.8613 17.1971C32.2079 16.434 30.6181 16.6565 29.1556 17.7694C29.0284 17.8648 28.9012 17.9601 28.774 18.0555C28.615 17.9283 28.4561 17.833 28.2335 17.674C27.9791 18.6915 27.7248 19.6135 27.4386 20.6627C28.5197 20.3765 29.4417 20.1222 30.4274 19.8678C30.2684 19.6453 30.173 19.4863 30.0458 19.3591C30.9679 18.1827 33.1936 18.4053 33.7023 19.2638C32.7166 19.3591 31.89 19.8042 31.1904 20.4719C30.9997 20.3448 30.8725 20.2176 30.6499 20.0586C30.3956 21.0443 30.1412 21.9663 29.8868 22.9202C29.9186 22.952 29.9504 22.9837 29.9822 23.0473C30.9043 22.793 31.8582 22.5386 32.8438 22.2843C32.6849 22.0617 32.5577 21.9027 32.3987 21.7119C32.7166 21.4894 33.0028 21.2668 33.3208 21.1078C33.7659 20.8853 34.211 20.9489 34.4972 21.2668C34.7833 21.553 34.8469 21.9981 34.5608 22.4432L25.3084 31.7909V18.2145L25.9125 17.6104L25.2448 16.9427L25.5627 16.6248L26.294 17.3561C26.4212 17.6104 26.7074 17.7694 26.9935 17.7694C27.4386 17.7694 27.7884 17.4196 27.7884 16.9745C27.7884 16.593 27.5022 16.2432 27.1525 16.1796C28.1699 15.9253 28.9012 15.035 28.9012 13.954C28.9012 13.3499 28.6468 12.7776 28.2653 12.3642L26.6756 13.954H26.0079L25.4038 14.5581L25.1494 14.3037L25.9443 13.5089H26.2622C26.3894 13.5089 26.3894 13.636 26.3894 13.636H26.5166V13.1909L26.2304 12.9048C26.4212 12.8412 26.4212 12.4914 26.294 12.396C26.1668 12.3007 26.0079 12.2371 26.0079 12.2371C26.0079 12.2371 25.9443 12.2371 25.8171 12.2371V11.9827H25.6263V12.2371H25.4991C25.3402 12.2371 25.2448 12.3007 25.2448 12.3007C24.9268 12.4279 25.054 12.6822 25.0858 12.7776L24.8633 12.555L25.0222 12.4279C25.213 12.3643 25.213 12.0145 25.0858 11.9191C24.9586 11.8237 24.7997 11.7601 24.7997 11.7601C24.7997 11.7601 24.7361 11.7601 24.6089 11.7601V11.5058H24.4181V11.7601H24.2909C24.132 11.7601 24.0366 11.8238 24.0366 11.8238C23.655 11.9827 23.8776 12.3324 23.8776 12.3324L24.132 12.5868C24.132 12.5868 24.0366 12.6822 23.9094 12.7776C23.9412 12.6504 23.9412 12.4915 23.8458 12.4279C23.7186 12.3325 23.5597 12.2689 23.5597 12.2689C23.5597 12.2689 23.4961 12.2689 23.3689 12.2689V12.0145H23.1781V12.2689H23.0509C22.892 12.2689 22.7966 12.3324 22.7966 12.3324C22.415 12.4914 22.6376 12.8412 22.6376 12.8412L22.7966 13.0001L22.5422 13.2545V13.6997H22.6694C22.6694 13.6997 22.6694 13.5725 22.7966 13.5725H23.0509L23.814 14.3356L23.5597 14.6217L22.9556 14.0176H22.2879L20.6981 12.4279C20.3166 12.8412 20.0622 13.4135 20.0622 14.0176C20.0622 15.2894 21.0797 16.3068 22.3515 16.3068C22.574 16.3068 22.7648 16.275 22.9874 16.2114L23.1145 16.3386L22.415 17.0381L22.3833 17.0699C22.2879 17.0699 22.1289 17.0699 21.9699 17.1335L21.2068 16.3704C21.2068 16.3386 21.2386 16.3068 21.2386 16.275C21.2386 16.1161 21.1115 15.9889 20.9525 15.9889C20.7935 15.9889 20.6663 16.1161 20.6663 16.275C20.6663 16.434 20.7935 16.5612 20.9525 16.5612C20.9843 16.5612 21.0161 16.5612 21.0479 16.5612L21.8109 17.3242C21.7474 17.4832 21.8109 17.674 22.0017 17.8648C22.1925 18.0238 22.3515 18.0238 22.4786 17.992L22.6694 18.1827L22.8602 17.992L22.7012 17.833C22.733 17.7376 22.7648 17.5786 22.733 17.4514L23.4961 16.6883L23.814 17.0063L23.1463 17.674L23.814 18.3417V31.8227L12.654 20.5356C11.9227 19.8043 12.0499 19.1684 13.0356 18.8186C14.6889 18.2463 16.2786 18.4053 17.773 19.2638C17.9002 19.3591 18.0592 19.4545 18.2181 19.5817C18.0909 19.7407 17.9956 19.8361 17.9002 19.9315C17.5504 20.313 17.5822 20.4084 18.0592 20.5356C19.0448 20.7899 19.9986 21.0443 20.9843 21.3304C21.1115 21.3622 21.2068 21.3622 21.4294 21.394C21.0797 20.154 20.7935 19.0094 20.4756 17.8648C20.412 17.6422 20.253 17.6422 20.094 17.7694C19.9033 17.9283 19.7125 18.1191 19.5535 18.2781C19.4899 18.2463 19.4581 18.2463 19.4263 18.2463C19.2992 18.1509 19.172 18.0556 19.0448 17.992C16.533 16.434 13.9576 16.3386 11.3504 17.7376C10.7781 18.0555 10.2694 18.2781 9.60172 18.2145C9.22018 18.1827 9.0612 18.3417 9.12479 18.7232C9.18838 19.3591 8.99761 19.8679 8.67966 20.4084C7.2489 22.952 7.34428 25.4956 8.83864 28.0073C9.18838 28.6115 9.22018 28.6115 8.77505 29.1202C8.58428 29.3427 8.55248 29.5335 8.90223 29.6289C9.91966 29.915 10.9689 30.2012 11.9863 30.4555C12.2725 30.5191 12.3679 30.4237 12.3043 30.1376C12.0181 29.1201 11.7638 28.0709 11.4776 27.0535C11.3822 26.7673 11.2233 26.7356 11.0007 26.9263C10.8417 27.0535 10.7145 27.1807 10.492 27.3715C10.4284 27.2761 10.4284 27.2124 10.3966 27.1806C10.333 27.0853 10.2694 26.9899 10.2058 26.8945C9.34736 25.4002 9.22018 23.8104 9.79248 22.1889C10.1422 21.2032 10.7781 21.0761 11.5094 21.8073L23.3371 33.6032L23.4325 33.6986L15.5474 41.6791C15.2612 41.9653 15.0704 42.0289 14.6571 41.8699C12.1453 40.7571 9.31556 42.633 9.37915 45.3356C9.41095 46.8617 10.333 48.2289 11.732 48.7694C13.1627 49.3417 14.7843 49.0238 15.8335 47.9427C16.9145 46.8617 17.2643 45.2402 16.6284 43.8412C16.4376 43.3961 16.533 43.1735 16.8509 42.8556L23.814 35.9243L24.0684 35.6699V47.4658C23.6233 47.6884 23.3371 48.1335 23.3371 48.674C23.3371 49.4371 23.9412 50.0412 24.7043 50.0412C25.4674 50.0412 26.0715 49.4371 26.0715 48.674C26.0715 48.1971 25.8171 47.752 25.4356 47.5294V35.7335L31.095 41.393C30.5227 41.9653 29.9504 42.5058 29.4099 43.0463C28.4243 44.0956 28.3607 43.6822 29.4417 44.795C29.6643 45.0176 29.8233 44.9858 30.014 44.795C30.5545 44.2545 31.1268 43.6822 31.6674 43.1417C31.8582 42.9509 32.049 42.7602 32.2397 42.6012C33.0346 43.1735 33.0346 43.2053 32.7484 44.032C32.1125 45.8125 32.8438 47.7838 34.529 48.6422C36.1823 49.5325 38.249 49.0238 39.3618 47.5294C40.4428 46.0032 40.252 43.9048 38.9166 42.6012C37.8038 41.552 36.1823 41.2658 34.6879 41.9335C34.529 41.9971 34.3064 42.0289 34.1792 41.9653C33.9249 41.8063 33.7659 41.552 33.5115 41.3294C33.6705 41.1704 33.7659 41.0432 33.8931 40.9479C34.4972 40.3438 35.1013 39.7079 35.7372 39.1038C35.9915 38.8812 35.9915 38.6904 35.7372 38.4679C35.5464 38.3089 35.3556 38.1181 35.1966 37.9273C34.9741 37.673 34.8151 37.673 34.5608 37.9273C34.1156 38.4043 33.6705 38.8176 33.2254 39.2627C32.9392 39.5489 32.7166 39.8668 32.4623 40.1848C30.2684 37.9591 28.1699 35.8607 26.0715 33.7304C26.1033 33.6986 26.1668 33.635 26.2304 33.5397L26.2622 33.5079C29.2827 30.4873 32.3033 27.4668 35.3556 24.4463C35.6418 24.1601 36.0233 23.9376 36.4049 23.7786C37.0408 23.5242 37.6449 24.0012 37.5813 24.7007C37.5495 25.2412 37.1997 25.6545 36.8182 26.0042C36.6592 25.8771 36.5002 25.7817 36.2777 25.6227C36.0233 26.6084 35.769 27.5622 35.4828 28.6114C36.5638 28.3253 37.4859 28.0709 38.5033 27.8165C38.3443 27.594 38.2172 27.435 38.09 27.276C38.7577 26.5765 39.2028 25.7181 39.2982 24.7642C40.252 25.4001 40.2838 27.6894 39.171 28.3889C39.0438 28.2935 38.8849 28.1981 38.6941 28.0391C38.4397 29.0248 38.1854 29.9786 37.8992 31.0279C38.9802 30.7417 39.9023 30.4873 40.8561 30.233C40.57 29.6607 40.57 29.6607 40.9515 29.152C41.4284 28.1663 41.7464 27.1489 41.6192 26.036ZM26.0715 16.1478C26.2622 16.2114 26.4848 16.2432 26.7074 16.2432H26.7391C26.5802 16.3386 26.4212 16.4658 26.3576 16.6248L25.9761 16.2432L26.0715 16.1478ZM13.0356 47.275C11.8909 47.275 11.0325 46.3848 11.0325 45.2402C11.0325 44.1273 11.9227 43.2371 13.0356 43.2371C14.1802 43.2371 15.0704 44.1273 15.0704 45.2402C15.0704 46.3848 14.1802 47.275 13.0356 47.275ZM24.7679 13.5089L24.6089 13.6678L24.1002 13.1591L24.6089 12.6504L25.1176 13.1591L24.7679 13.5089ZM36.2141 43.2371C37.3269 43.2371 38.2172 44.1273 38.2172 45.2402C38.2172 46.3848 37.3269 47.275 36.1823 47.275C35.0377 47.275 34.1474 46.353 34.1474 45.2402C34.1792 44.1273 35.0695 43.2371 36.2141 43.2371Z" fill="var(--fill-0, white)"/>
</g>
<path id="Vector_4" d="M65.1765 23.2105C63.2371 21.2392 62.2832 18.7592 62.2832 15.7387C62.2832 12.7182 63.2688 10.2382 65.1765 8.29872C67.116 6.32744 69.5006 5.3418 72.394 5.3418C74.5878 5.3418 76.4955 5.85051 78.1488 6.93154V8.36231C76.4001 7.1859 74.4924 6.61359 72.4258 6.61359C69.9458 6.61359 67.8473 7.47205 66.1622 9.22077C64.4771 10.9377 63.6186 13.1315 63.6186 15.7387C63.6186 18.3459 64.4453 20.5398 66.1622 22.2885C67.8473 24.0054 69.9458 24.8639 72.4576 24.8639C74.8422 24.8639 76.8771 24.1644 78.594 22.7654V24.228C76.9406 25.4998 74.874 26.1357 72.394 26.1357C69.5006 26.1357 67.0842 25.1818 65.1765 23.2105Z" fill="var(--fill-0, white)"/>
<path id="Vector_5" d="M82.127 25.7858V5.69141H95.5762V6.93141H83.4623V14.3714H93.4777V15.6114H83.4623V24.5776H96.0531V25.8176H82.127V25.7858Z" fill="var(--fill-0, white)"/>
<path id="Vector_6" d="M99.4844 25.7858V5.69141H107.942C111.471 5.69141 113.57 7.53551 113.57 10.556C113.57 12.7817 112.647 14.2124 110.772 14.8801C113.633 15.3253 115.382 17.3601 115.382 20.2535C115.382 23.6237 112.965 25.8176 108.927 25.8176H99.4844V25.7858ZM100.82 14.4986H107.783C110.644 14.4986 112.298 13.1314 112.298 10.715C112.298 8.29859 110.644 6.93141 107.783 6.93141H100.82V14.4986ZM100.82 24.5776H108.705C112.043 24.5776 113.919 22.956 113.919 20.1263C113.919 17.2965 112.012 15.675 108.705 15.675H100.82V24.5776Z" fill="var(--fill-0, white)"/>
<path id="Vector_7" d="M119.232 25.7858V5.69141H132.682V6.93141H120.568V14.3714H130.583V15.6114H120.568V24.5776H133.159V25.8176H119.232V25.7858Z" fill="var(--fill-0, white)"/>
<path id="Vector_8" d="M136.621 25.7858V5.69141H144.983C148.894 5.69141 151.183 7.85346 151.183 11.0965C151.183 14.3396 148.894 16.5335 144.983 16.5335H137.956V25.8176H136.621V25.7858ZM137.925 15.2935H144.856C148.035 15.2935 149.848 13.7673 149.848 11.0965C149.848 8.45756 148.035 6.93141 144.856 6.93141H137.925V15.2935Z" fill="var(--fill-0, white)"/>
<path id="Vector_9" d="M156.781 23.1788C154.873 21.2075 153.951 18.7275 153.951 15.7388C153.951 12.7819 154.905 10.3019 156.781 8.33062C158.72 6.35934 161.105 5.34187 163.935 5.34187C166.764 5.34187 169.149 6.35934 171.057 8.33062C172.996 10.3019 173.918 12.7819 173.918 15.7388C173.918 18.6957 172.964 21.2075 171.057 23.1788C169.117 25.1501 166.764 26.1357 163.935 26.1357C161.073 26.1357 158.689 25.1819 156.781 23.1788ZM163.935 24.8957C166.383 24.8957 168.418 24.0373 170.071 22.2886C171.724 20.5399 172.583 18.3778 172.583 15.7706C172.583 13.1634 171.756 11.0014 170.071 9.25264C168.418 7.50392 166.351 6.64546 163.935 6.64546C161.486 6.64546 159.452 7.50392 157.798 9.25264C156.145 11.0014 155.286 13.1634 155.286 15.7706C155.286 18.3778 156.113 20.5399 157.798 22.2886C159.452 24.0055 161.486 24.8957 163.935 24.8957Z" fill="var(--fill-0, white)"/>
<path id="Vector_10" d="M178.115 18.6608V17.4844H185.873V18.6608H178.115Z" fill="var(--fill-0, white)"/>
<path id="Vector_11" d="M188.355 24.6731V23.3059C190.263 24.3551 192.362 24.8956 194.714 24.8956C198.88 24.8956 201.455 22.9562 201.455 20.0629C201.455 18.7275 200.914 17.6464 199.802 16.7562C198.721 15.8659 197.258 15.4208 195.382 15.4208H192.902V14.1808H195.509C198.593 14.1808 200.501 12.75 200.501 10.3336C200.501 7.94898 198.275 6.61359 195.128 6.61359C193.156 6.61359 191.217 7.05872 189.309 7.94898V6.64539C191.249 5.78693 193.22 5.3418 195.191 5.3418C197.131 5.3418 198.689 5.78693 199.929 6.67718C201.169 7.56744 201.805 8.77564 201.805 10.3336C201.805 11.6054 201.423 12.591 200.66 13.3223C199.929 14.0536 199.102 14.5305 198.212 14.7531C200.12 15.23 202.822 16.8197 202.822 20.1264C202.822 21.8751 202.091 23.3377 200.692 24.4505C199.293 25.5633 197.353 26.1357 194.905 26.1357C192.425 26.1357 190.2 25.6588 188.355 24.6731Z" fill="var(--fill-0, white)"/>
<path id="Vector_12" d="M204.25 25.786L213.375 5.56445H214.615L223.708 25.786H222.341L219.67 19.8721H208.351L205.681 25.786H204.25ZM208.797 18.7275H219.162L213.979 7.28137L208.797 18.7275Z" fill="var(--fill-0, white)"/>
<path id="Vector_13" d="M226.762 25.7858V5.69141H242.119V25.7858H240.783V6.93141H228.065V25.8176H226.762V25.7858Z" fill="var(--fill-0, white)"/>
<path id="Vector_14" d="M245.201 25.786L254.326 5.56445H255.566L264.66 25.786H263.292L260.622 19.8721H249.303L246.632 25.786H245.201ZM249.716 18.7275H260.081L254.899 7.28138L249.716 18.7275Z" fill="var(--fill-0, white)"/>
<path id="Vector_15" d="M265.172 30.4263V24.576H267.048C268.383 22.7001 269.369 20.5699 269.973 18.1535C270.577 15.7371 270.895 12.3032 270.895 7.82014V5.72168H282.659V24.6078H285.807V30.4581H284.535V25.8478H266.444V30.4581H265.172V30.4263ZM281.324 24.576V6.92988H272.23V8.26527C272.23 15.9278 271.213 20.9832 268.606 24.5442H281.324V24.576Z" fill="var(--fill-0, white)"/>
<path id="Vector_16" d="M288.887 25.7858V5.69141H290.222V14.3714H303.353V5.69141H304.689V25.7858H303.353V15.6114H290.222V25.8176H288.887V25.7858Z" fill="var(--fill-0, white)"/>
<path id="Vector_17" d="M309.777 25.7858V5.69141H311.113V13.6083H317.058C319.284 13.6083 320.969 14.1806 322.209 15.2935C323.449 16.4063 324.053 17.8688 324.053 19.6811C324.053 23.4011 321.478 25.7858 317.058 25.7858H309.777ZM311.113 24.5776H316.963C320.619 24.5776 322.718 22.797 322.718 19.6811C322.718 16.597 320.619 14.8165 316.963 14.8165H311.113V24.5776ZM327.36 25.7858V5.69141H328.695V25.7858H327.36Z" fill="var(--fill-0, white)"/>
<path id="Vector_18" d="M333.812 25.7856V5.69128H335.148V23.56L348.724 5.69128H349.932V25.7856H348.597V7.88513L334.957 25.8174H333.812V25.7856ZM337.374 0H338.55C338.55 1.81231 339.854 3.02051 341.888 3.02051C343.828 3.02051 345.163 1.74872 345.163 0H346.34C346.308 2.4482 344.432 4.10154 341.888 4.10154C339.186 4.10154 337.405 2.51179 337.374 0Z" fill="var(--fill-0, white)"/>
<path id="Vector_19" d="M65.5598 55.7067V54.4349C66.1957 54.6892 66.8952 54.8164 67.5947 54.8164C69.4388 54.8164 70.5198 53.481 71.8234 50.5559L71.9506 50.3015L63.7793 35.6123H65.3054L72.6501 48.8708L78.7547 35.6123H80.2172L72.809 51.5097C71.2193 54.88 69.8203 56.0882 67.849 56.0882C66.9588 56.0564 66.2275 55.961 65.5598 55.7067Z" fill="var(--fill-0, white)"/>
<path id="Vector_20" d="M83.2402 55.7379V35.6436H84.5756V44.3236H97.7069V35.6436H99.0423V55.7379H97.7069V45.5318H84.5756V55.7379H83.2402Z" fill="var(--fill-0, white)"/>
<path id="Vector_21" d="M104.129 55.7369V35.6426H105.464V53.5113L119.041 35.6426H120.249V55.7369H118.914V37.8046L105.274 55.7369H104.129Z" fill="var(--fill-0, white)"/>
<path id="Vector_22" d="M125.4 55.7369V35.6426H133.858C137.387 35.6426 139.486 37.4867 139.486 40.5072C139.486 42.7328 138.563 44.1636 136.688 44.8313C139.549 45.2764 141.298 47.3113 141.298 50.2046C141.298 53.5749 138.881 55.7687 134.843 55.7687H125.4V55.7369ZM126.704 44.418H133.667C136.529 44.418 138.182 43.0508 138.182 40.6344C138.182 38.218 136.529 36.8508 133.667 36.8508H126.704V44.418ZM126.704 54.4969H134.589C137.928 54.4969 139.803 52.8754 139.803 50.0457C139.803 47.2159 137.896 45.5944 134.589 45.5944H126.704V54.4969Z" fill="var(--fill-0, white)"/>
<path id="Vector_23" d="M145.145 55.7369V35.6426H158.594V36.8826H146.48V44.3226H156.495V45.5626H146.48V54.5287H159.071V55.7687H145.145V55.7369Z" fill="var(--fill-0, white)"/>
<path id="Vector_24" d="M162.506 55.7369V35.6426H170.868C174.779 35.6426 177.068 37.8046 177.068 41.0477C177.068 44.2908 174.779 46.4846 170.868 46.4846H163.841V55.7687H162.506V55.7369ZM163.841 45.2128H170.773C173.952 45.2128 175.764 43.6867 175.764 41.0159C175.764 38.3769 173.952 36.8508 170.773 36.8508H163.841V45.2128Z" fill="var(--fill-0, white)"/>
<path id="Vector_25" d="M182.725 53.1285C180.786 51.1572 179.832 48.6772 179.832 45.6567C179.832 42.6362 180.818 40.1562 182.725 38.2167C184.665 36.2454 187.049 35.2598 189.943 35.2598C192.137 35.2598 194.044 35.7685 195.698 36.8495V38.2803C193.949 37.1039 192.041 36.5316 189.975 36.5316C187.495 36.5316 185.396 37.39 183.711 39.1387C182.026 40.8557 181.199 43.0495 181.199 45.6567C181.199 48.2639 182.026 50.4577 183.711 52.2064C185.396 53.9234 187.495 54.7818 190.006 54.7818C192.391 54.7818 194.426 54.0823 196.143 52.6834V54.1459C194.489 55.4177 192.423 56.0536 189.943 56.0536C187.049 56.0536 184.665 55.0998 182.725 53.1285Z" fill="var(--fill-0, white)"/>
<path id="Vector_26" d="M199.672 55.7379V35.6436H201.007V53.5123L214.584 35.6436H215.792V55.7379H214.456V37.8056L200.816 55.7379H199.672Z" fill="var(--fill-0, white)"/>
<path id="Vector_27" d="M226.157 55.7385V36.8523H218.939V35.6123H234.678V36.8523H227.46V55.7385H226.157Z" fill="var(--fill-0, white)"/>
<path id="Vector_28" d="M237.824 55.7369V35.6426H251.273V36.8826H239.16V44.3226H249.175V45.5626H239.16V54.5287H251.75V55.7687H237.824V55.7369Z" fill="var(--fill-0, white)"/>
<path id="Vector_29" d="M260.434 55.7385V36.8523H253.217V35.6123H268.955V36.8523H261.738V55.7385H260.434Z" fill="var(--fill-0, white)"/>
</g>
</svg>
