<svg preserveAspectRatio="none" width="100%" height="100%" overflow="visible" style="display: block;" viewBox="0 0 158 220" fill="none" xmlns="http://www.w3.org/2000/svg">
<g id="Frame 125">
<rect id="Rectangle 13" width="158" height="220" rx="12" fill="var(--fill-0, #D9D9D9)"/>
<g id="&#208;&#149;&#208;&#147;&#208;&#173;">
<path d="M35.8125 126.579V91.1558H58.2736V97.4885H42.4914V120.246H58.2736V126.579H35.8125ZM39.523 112.034V105.701H56.6904V112.034H39.523Z" fill="var(--fill-0, #0A5CE9)"/>
<path d="M65.668 126.579V91.1558H87.3374V97.4885H72.3469V126.579H65.668Z" fill="var(--fill-0, #0A5CE9)"/>
<path d="M122.997 108.867C122.997 111.473 122.535 113.897 121.612 116.14C120.721 118.383 119.435 120.345 117.753 122.027C116.103 123.71 114.157 125.029 111.915 125.985C109.705 126.909 107.281 127.371 104.642 127.371C102.795 127.371 101.014 127.123 99.2989 126.628C97.6168 126.167 96.0501 125.474 94.5989 124.551C93.1477 123.594 91.8613 122.44 90.7399 121.087L95.4399 116.585C96.1985 117.509 97.0396 118.3 97.9631 118.96C98.9196 119.62 99.9585 120.131 101.08 120.494C102.201 120.857 103.389 121.038 104.642 121.038C106.093 121.038 107.512 120.824 108.897 120.395C110.282 119.933 111.535 119.207 112.657 118.218C113.811 117.228 114.718 115.942 115.378 114.359C116.07 112.776 116.417 110.863 116.417 108.62C116.417 106.476 116.07 104.646 115.378 103.128C114.718 101.611 113.811 100.391 112.657 99.4674C111.535 98.5109 110.282 97.8183 108.897 97.3895C107.512 96.9278 106.093 96.6969 104.642 96.6969C102.795 96.6969 101.129 97.0597 99.6452 97.7853C98.161 98.5109 96.9077 99.4839 95.8852 100.704L91.2347 96.1527C92.3561 94.8993 93.5929 93.8439 94.9452 92.9864C96.3305 92.1288 97.8312 91.4857 99.4473 91.0569C101.063 90.5951 102.795 90.3643 104.642 90.3643C107.281 90.3643 109.705 90.8425 111.915 91.799C114.157 92.7225 116.103 94.0253 117.753 95.7074C119.435 97.3895 120.721 99.352 121.612 101.595C122.535 103.838 122.997 106.262 122.997 108.867ZM119.187 105.948V111.786H100.684V105.948H119.187Z" fill="var(--fill-0, #0A5CE9)"/>
</g>
</g>
</svg>
