<svg preserveAspectRatio="none" width="100%" height="100%" overflow="visible" style="display: block;" viewBox="0 0 13.9995 13.997" fill="none" xmlns="http://www.w3.org/2000/svg">
<path id="Vector" d="M8.98726 8.98726L7.46601 13.171C7.43049 13.2667 7.36654 13.3492 7.28274 13.4075C7.19895 13.4658 7.09933 13.497 6.99726 13.497C6.89519 13.497 6.79557 13.4658 6.71177 13.4075C6.62798 13.3492 6.56403 13.2667 6.52851 13.171L5.00976 8.98726L0.826007 7.46601C0.730319 7.43049 0.647792 7.36654 0.589515 7.28274C0.531237 7.19895 0.5 7.09933 0.5 6.99726C0.5 6.89519 0.531237 6.79557 0.589515 6.71177C0.647792 6.62798 0.730319 6.56403 0.826007 6.52851L5.00976 5.00976L6.53101 0.826007C6.56653 0.730319 6.63048 0.647792 6.71427 0.589515C6.79807 0.531237 6.89769 0.5 6.99976 0.5C7.10183 0.5 7.20145 0.531237 7.28524 0.589515C7.36904 0.647792 7.43299 0.730319 7.46851 0.826007L8.98976 5.00976L13.1735 6.53101C13.2692 6.56653 13.3517 6.63048 13.41 6.71427C13.4683 6.79807 13.4995 6.89769 13.4995 6.99976C13.4995 7.10183 13.4683 7.20145 13.41 7.28524C13.3517 7.36904 13.2692 7.43299 13.1735 7.46851L8.98726 8.98726Z" stroke="var(--stroke-0, white)" stroke-linecap="round" stroke-linejoin="round"/>
</svg>
