<svg preserveAspectRatio="none" width="100%" height="100%" overflow="visible" style="display: block;" viewBox="0 0 85.7056 102.153" fill="none" xmlns="http://www.w3.org/2000/svg">
<g id="Group 7">
<path id="Vector" d="M0 0V87.1042C0 91.9713 3.97199 95.9433 8.83909 95.9433H35.4123C37.9857 96.3349 40.3353 97.8453 41.7899 100.027L43.1884 102.153L44.587 100.027C46.0416 97.8453 48.3353 96.3349 50.9087 95.9433H76.8665C81.7336 95.9433 85.7056 91.9713 85.7056 87.1042V0H0ZM76.9224 92.5307H50.8527H50.6289C47.8318 92.9783 45.2024 94.3209 43.2444 96.3908C41.2864 94.3768 38.6011 92.9783 35.8039 92.5307H8.83909C5.81813 92.5307 3.41256 90.1251 3.41256 87.1042V3.4125H82.349V87.1042C82.349 90.1251 79.9434 92.5307 76.9224 92.5307Z" fill="var(--fill-0, white)"/>
<path id="Vector_2" d="M40.8918 52.2523C40.9478 52.3083 41.0037 52.3642 41.0597 52.4201L40.8918 52.2523ZM29.4234 68.5319C33.4513 64.5599 37.4793 60.532 41.5072 56.504C41.5632 56.4481 41.6191 56.3921 41.675 56.3362L29.4234 68.5319Z" fill="var(--fill-0, white)"/>
<path id="Vector_3" d="M73.229 38.993C72.7815 34.7413 69.7605 32.0001 65.5088 31.7763C64.334 31.7204 64.2221 31.5526 64.1662 30.4337C63.9983 27.2449 62.5438 24.7834 59.5788 23.4408C56.6697 22.0981 53.8724 22.4897 51.299 24.4477C51.0752 24.6155 50.8515 24.7834 50.6277 24.9512C50.348 24.7274 50.0683 24.5596 49.6767 24.2799C49.2291 26.0701 48.7816 27.6924 48.2781 29.5386C50.1801 29.0351 51.8025 28.5875 53.5368 28.14C53.257 27.7484 53.0892 27.4686 52.8654 27.2449C54.4878 25.175 58.404 25.5666 59.2991 27.0771C57.5648 27.2449 56.1103 28.0281 54.8794 29.2029C54.5438 28.9791 54.32 28.7554 53.9284 28.4757C53.4808 30.2099 53.0333 31.8323 52.5857 33.5106C52.6417 33.5666 52.6976 33.6224 52.7536 33.7343C54.3759 33.2868 56.0543 32.8393 57.7886 32.3917C57.5089 32.0001 57.2851 31.7204 57.0054 31.3847C57.5648 30.9931 58.0683 30.6015 58.6277 30.3218C59.411 29.9302 60.1942 30.0421 60.6977 30.6015C61.2011 31.105 61.313 31.8882 60.8095 32.6715L44.5298 49.1188V25.2309L45.5928 24.168L44.418 22.9932L44.9774 22.4337L46.2641 23.7205C46.4879 24.168 46.9914 24.4477 47.4949 24.4477C48.2781 24.4477 48.8934 23.8323 48.8934 23.0491C48.8934 22.3778 48.39 21.7624 47.7746 21.6505C49.5648 21.203 50.8515 19.6365 50.8515 17.7345C50.8515 16.6715 50.4039 15.6646 49.7326 14.9373L46.9354 17.7345H45.7606L44.6977 18.7974L44.2501 18.3498L45.6487 16.9513H46.2082C46.4319 16.9513 46.4319 17.175 46.4319 17.175H46.6557V16.3918L46.1522 15.8884C46.4879 15.7765 46.4879 15.1611 46.2641 14.9932C46.0403 14.8254 45.7606 14.7135 45.7606 14.7135C45.7606 14.7135 45.6487 14.7135 45.4249 14.7135V14.266H45.0893V14.7135H44.8655C44.5858 14.7135 44.418 14.8255 44.418 14.8255C43.8585 15.0492 44.0823 15.4968 44.1382 15.6646L43.7466 15.2729L44.0264 15.0492C44.362 14.9373 44.362 14.3219 44.1382 14.1541C43.9145 13.9862 43.6348 13.8744 43.6348 13.8744C43.6348 13.8744 43.5229 13.8744 43.2991 13.8744V13.4269H42.9634V13.8744H42.7397C42.4599 13.8744 42.2921 13.9863 42.2921 13.9863C41.6208 14.266 42.0124 14.8813 42.0124 14.8813L42.4599 15.3289C42.4599 15.3289 42.2921 15.4968 42.0683 15.6646C42.1243 15.4408 42.1243 15.1611 41.9564 15.0492C41.7327 14.8814 41.453 14.7695 41.453 14.7695C41.453 14.7695 41.3411 14.7695 41.1173 14.7695V14.3219H40.7816V14.7695H40.5579C40.2781 14.7695 40.1103 14.8813 40.1103 14.8813C39.439 15.1611 39.8306 15.7764 39.8306 15.7764L40.1103 16.0562L39.6628 16.5038V17.287H39.8865C39.8865 17.287 39.8865 17.0632 40.1103 17.0632H40.5579L41.9005 18.4058L41.453 18.9093L40.39 17.8464H39.2152L36.418 15.0492C35.7467 15.7765 35.2992 16.7835 35.2992 17.8464C35.2992 20.0842 37.0893 21.8743 39.3271 21.8743C39.7187 21.8743 40.0544 21.8183 40.446 21.7065L40.6697 21.9302L39.439 23.161L39.383 23.217C39.2152 23.217 38.9355 23.2169 38.6558 23.3288L37.3131 21.9862C37.3131 21.9302 37.3691 21.8743 37.3691 21.8184C37.3691 21.5387 37.1453 21.3149 36.8656 21.3149C36.5859 21.3149 36.3621 21.5387 36.3621 21.8184C36.3621 22.0981 36.5859 22.3219 36.8656 22.3219C36.9215 22.3219 36.9775 22.3219 37.0334 22.3219L38.3761 23.6645C38.2642 23.9442 38.3761 24.2799 38.7117 24.6156C39.0474 24.8953 39.3271 24.8953 39.5509 24.8394L39.8865 25.175L40.2222 24.8394L39.9425 24.5596C39.9984 24.3918 40.0544 24.112 39.9984 23.8883L41.3411 22.5456L41.9005 23.1051L40.7257 24.2799L41.9005 25.4547V49.1748L22.2643 29.3148C20.9776 28.0281 21.2014 26.9093 22.9356 26.2939C25.8447 25.2869 28.6419 25.5666 31.2712 27.0771C31.495 27.2449 31.7747 27.4128 32.0544 27.6365C31.8307 27.9163 31.6628 28.0841 31.495 28.2519C30.8796 28.9232 30.9356 29.0911 31.7747 29.3148C33.509 29.7624 35.1873 30.2099 36.9215 30.7134C37.1453 30.7694 37.3131 30.7693 37.7047 30.8253C37.0894 28.6435 36.5859 26.6296 36.0264 24.6156C35.9145 24.224 35.6348 24.2239 35.3551 24.4477C35.0194 24.7274 34.6838 25.0631 34.4041 25.3428C34.2922 25.2869 34.2362 25.2868 34.1803 25.2868C33.9565 25.119 33.7327 24.9512 33.509 24.8394C29.0894 22.0981 24.558 21.9302 19.9706 24.3918C18.9636 24.9512 18.0685 25.3428 16.8937 25.2309C16.2224 25.175 15.9427 25.4547 16.0546 26.126C16.1664 27.2449 15.8308 28.14 15.2714 29.0911C12.7539 33.5666 12.9217 38.042 15.5511 42.4616C16.1664 43.5245 16.2224 43.5245 15.4392 44.4196C15.1035 44.8112 15.0476 45.1469 15.663 45.3147C17.4532 45.8182 19.2993 46.3216 21.0895 46.7692C21.593 46.8811 21.7608 46.7132 21.6489 46.2098C21.1454 44.4196 20.6979 42.5735 20.1944 40.7833C20.0266 40.2798 19.7468 40.2238 19.3552 40.5595C19.0755 40.7833 18.8517 41.0071 18.4601 41.3427C18.3482 41.1749 18.3482 41.0629 18.2923 41.007C18.1804 40.8392 18.0685 40.6714 17.9566 40.5036C16.4462 37.8742 16.2224 35.077 17.2294 32.2239C17.8448 30.4896 18.9636 30.2659 20.2503 31.5526L41.0613 52.3077L41.2292 52.4755L27.3552 66.5173C26.8517 67.0208 26.516 67.1327 25.7887 66.853C21.3692 64.895 16.3902 68.1956 16.5021 72.9509C16.5581 75.6361 18.1804 78.0417 20.6419 78.9928C23.1594 79.9997 26.0125 79.4403 27.8587 77.5382C29.7607 75.6361 30.3761 72.783 29.2572 70.3215C28.9216 69.5383 29.0894 69.1467 29.6489 68.5872L41.9005 56.3915L42.348 55.944V76.6991C41.5648 77.0907 41.0613 77.8739 41.0613 78.8249C41.0613 80.1676 42.1243 81.2305 43.4669 81.2305C44.8096 81.2305 45.8725 80.1676 45.8725 78.8249C45.8725 77.9858 45.4249 77.2026 44.7536 76.811V56.0559L54.7116 66.0138C53.7046 67.0208 52.6976 67.9719 51.7466 68.9229C50.0123 70.769 49.9004 70.0418 51.8025 71.9998C52.1941 72.3914 52.4738 72.3355 52.8095 71.9998C53.7605 71.0488 54.7675 70.0418 55.7186 69.0907C56.0543 68.7551 56.39 68.4194 56.7257 68.1397C58.1243 69.1467 58.1243 69.2026 57.6208 70.6572C56.5019 73.79 57.7886 77.2585 60.7536 78.769C63.6627 80.3354 67.299 79.4403 69.257 76.811C71.1591 74.1257 70.8234 70.4334 68.4738 68.1397C66.5158 66.2936 63.6627 65.7901 61.0333 66.9649C60.7536 67.0768 60.362 67.1327 60.1382 67.0208C59.6907 66.7411 59.411 66.2936 58.9634 65.902C59.2431 65.6222 59.411 65.3985 59.6347 65.2306C60.6977 64.1677 61.7606 63.0488 62.8795 61.9859C63.327 61.5943 63.327 61.2586 62.8795 60.867C62.5438 60.5873 62.2081 60.2517 61.9284 59.916C61.5368 59.4684 61.2571 59.4684 60.8095 59.916C60.0263 60.7551 59.2431 61.4824 58.4599 62.2656C57.9564 62.7691 57.5648 63.3285 57.1173 63.888C53.257 59.9719 49.5648 56.2797 45.8725 52.5314C45.9284 52.4755 46.0403 52.3636 46.1522 52.1958L46.2082 52.1398C51.5228 46.8252 56.8375 41.5105 62.2081 36.1959C62.7116 35.6924 63.3829 35.3008 64.0543 35.021C65.1731 34.5735 66.2361 35.4127 66.1242 36.6435C66.0682 37.5945 65.4529 38.3217 64.7815 38.9371C64.5018 38.7133 64.2221 38.5455 63.8305 38.2658C63.3829 40.0001 62.9354 41.6783 62.4319 43.5245C64.334 43.021 65.9564 42.5734 67.7465 42.1259C67.4668 41.7343 67.2431 41.4545 67.0193 41.1748C68.1941 39.9441 68.9773 38.4336 69.1451 36.7553C70.8234 37.8742 70.8794 41.9021 68.9214 43.1329C68.6976 42.965 68.4179 42.7972 68.0822 42.5175C67.6347 44.2518 67.1871 45.9301 66.6836 47.7762C68.5857 47.2727 70.2081 46.8252 71.8864 46.3776C71.3829 45.3707 71.3829 45.3707 72.0542 44.4756C72.8934 42.7413 73.4528 40.9511 73.229 38.993ZM45.8725 21.5946C46.2082 21.7065 46.5998 21.7625 46.9914 21.7625H47.0473C46.7676 21.9303 46.4879 22.154 46.376 22.4337L45.7047 21.7625L45.8725 21.5946ZM22.9356 76.3634C20.9217 76.3634 19.4112 74.797 19.4112 72.783C19.4112 70.825 20.9776 69.2586 22.9356 69.2586C24.9496 69.2586 26.516 70.825 26.516 72.783C26.516 74.797 24.9496 76.3634 22.9356 76.3634ZM43.5788 16.9513L43.2991 17.231L42.404 16.3359L43.2991 15.4408L44.1942 16.3359L43.5788 16.9513ZM63.7186 69.2586C65.6766 69.2586 67.2431 70.825 67.2431 72.783C67.2431 74.797 65.6766 76.3634 63.6627 76.3634C61.6487 76.3634 60.0823 74.741 60.0823 72.783C60.1382 70.825 61.7046 69.2586 63.7186 69.2586Z" fill="var(--fill-0, white)"/>
</g>
</svg>
