<svg preserveAspectRatio="none" width="100%" height="100%" overflow="visible" style="display: block;" viewBox="0 0 23 24.0024" fill="none" xmlns="http://www.w3.org/2000/svg">
<path id="Vector" d="M22.5613 10.4412L12.5613 0.441183C12.4219 0.301343 12.2563 0.190388 12.074 0.11468C11.8917 0.0389715 11.6962 0 11.4988 0C11.3013 0 11.1059 0.0389715 10.9235 0.11468C10.7412 0.190388 10.5756 0.301343 10.4363 0.441183L0.436255 10.4412C0.155938 10.7231 -0.000971979 11.1048 4.53071e-06 11.5024V23.5024C4.53071e-06 23.635 0.052683 23.7622 0.146451 23.856C0.240219 23.9498 0.367396 24.0024 0.500005 24.0024H8.5C8.63261 24.0024 8.75979 23.9498 8.85356 23.856C8.94733 23.7622 9 23.635 9 23.5024V16.0024H14V23.5024C14 23.635 14.0527 23.7622 14.1465 23.856C14.2402 23.9498 14.3674 24.0024 14.5 24.0024H22.5C22.6326 24.0024 22.7598 23.9498 22.8536 23.856C22.9473 23.7622 23 23.635 23 23.5024V11.5024C23.0002 11.3054 22.9615 11.1103 22.8862 10.9282C22.8109 10.7461 22.7005 10.5806 22.5613 10.4412ZM22 23.0024H15V15.5024C15 15.3698 14.9473 15.2426 14.8536 15.1489C14.7598 15.0551 14.6326 15.0024 14.5 15.0024H8.5C8.3674 15.0024 8.24022 15.0551 8.14645 15.1489C8.05268 15.2426 8 15.3698 8 15.5024V23.0024H1V11.5024C0.999953 11.4368 1.01284 11.3717 1.03794 11.311C1.06303 11.2503 1.09984 11.1952 1.14625 11.1487L11.1463 1.14868C11.1927 1.10219 11.2478 1.06532 11.3085 1.04015C11.3692 1.01499 11.4343 1.00204 11.5 1.00204C11.5657 1.00204 11.6308 1.01499 11.6915 1.04015C11.7522 1.06532 11.8073 1.10219 11.8538 1.14868L21.8538 11.1487C21.9002 11.1952 21.937 11.2503 21.9621 11.311C21.9872 11.3717 22.0001 11.4368 22 11.5024V23.0024Z" fill="var(--fill-0, white)"/>
</svg>
