<svg preserveAspectRatio="none" width="100%" height="100%" overflow="visible" style="display: block;" viewBox="0 0 29.9979 25.0004" fill="none" xmlns="http://www.w3.org/2000/svg">
<path id="Vector" d="M29.7477 8.34125L22.7477 0.34125C22.6542 0.234353 22.5389 0.148629 22.4095 0.0897865C22.2802 0.0309444 22.1398 0.000335929 21.9977 0H7.99775C7.85567 0.000335929 7.71529 0.0309444 7.58597 0.0897865C7.45664 0.148629 7.34134 0.234353 7.24775 0.34125L0.247748 8.34125C0.0844443 8.5277 -0.00380072 8.76815 0.000125607 9.01597C0.00405194 9.26379 0.0998698 9.50132 0.268998 9.6825L14.269 24.6825C14.3626 24.7828 14.4758 24.8628 14.6016 24.9175C14.7274 24.9722 14.8631 25.0004 15.0002 25.0004C15.1374 25.0004 15.2731 24.9722 15.3989 24.9175C15.5247 24.8628 15.6379 24.7828 15.7315 24.6825L29.7315 9.6825C29.8999 9.50069 29.9948 9.26282 29.9979 9.015C30.0009 8.76719 29.9117 8.52708 29.7477 8.34125ZM26.794 8H21.4977L16.9977 2H21.544L26.794 8ZM8.32025 10L12.0865 19.4163L3.299 10H8.32025ZM19.5202 10L14.9977 21.3075L10.4752 10H19.5202ZM10.9977 8L14.9977 2.66625L18.9977 8H10.9977ZM21.6752 10H26.6965L17.909 19.4163L21.6752 10ZM8.4515 2H12.9977L8.49775 8H3.2015L8.4515 2Z" fill="var(--fill-0, white)"/>
</svg>
