<svg preserveAspectRatio="none" width="100%" height="100%" overflow="visible" style="display: block;" viewBox="0 0 19.4141 19.4141" fill="none" xmlns="http://www.w3.org/2000/svg">
<path id="vector" d="M8.5 0C13.1944 0 17 3.80558 17 8.5C17 10.4868 16.316 12.3125 15.1738 13.7598L19.4141 18L18 19.4141L13.7598 15.1738C12.3125 16.316 10.4868 17 8.5 17C3.80558 17 0 13.1944 0 8.5C0 3.80558 3.80558 0 8.5 0ZM8.5 2C4.91015 2 2 4.91015 2 8.5C2 12.0899 4.91015 15 8.5 15C12.0899 15 15 12.0899 15 8.5C15 4.91015 12.0899 2 8.5 2Z" fill="var(--fill-0, #6A6B6D)"/>
</svg>
