<svg preserveAspectRatio="none" width="100%" height="100%" overflow="visible" style="display: block;" viewBox="0 0 43.6244 51.9961" fill="none" xmlns="http://www.w3.org/2000/svg">
<g id="Group 7">
<path id="Vector" d="M1.36762e-05 0V44.3362C1.36762e-05 46.8136 2.02177 48.8354 4.49913 48.8354H18.025C19.3348 49.0347 20.5308 49.8035 21.2712 50.9141L21.983 51.9961L22.6949 50.9141C23.4353 49.8035 24.6028 49.0347 25.9127 48.8354H39.1253C41.6026 48.8354 43.6244 46.8136 43.6244 44.3362V0H1.36762e-05ZM39.1537 47.0984H25.8842H25.7703C24.3465 47.3262 23.0082 48.0096 22.0115 49.0632C21.0149 48.0381 19.6481 47.3262 18.2243 47.0984H4.49913C2.96146 47.0984 1.73702 45.8739 1.73702 44.3362V1.73697H41.9159V44.3362C41.9159 45.8739 40.6914 47.0984 39.1537 47.0984Z" fill="var(--fill-0, white)"/>
<path id="Vector_2" d="M20.8158 26.5965C20.8443 26.625 20.8727 26.6535 20.9012 26.6819L20.8158 26.5965ZM14.9783 34.8829C17.0285 32.8611 19.0788 30.8109 21.129 28.7606C21.1575 28.7322 21.186 28.7037 21.2144 28.6752L14.9783 34.8829Z" fill="var(--fill-0, white)"/>
<path id="Vector_3" d="M37.274 19.8475C37.0462 17.6833 35.5086 16.288 33.3444 16.1741C32.7464 16.1457 32.6895 16.0603 32.661 15.4907C32.5756 13.8676 31.8352 12.6147 30.326 11.9313C28.8453 11.2479 27.4215 11.4472 26.1116 12.4438C25.9977 12.5293 25.8838 12.6147 25.7699 12.7001C25.6275 12.5862 25.4852 12.5008 25.2858 12.3585C25.058 13.2697 24.8302 14.0954 24.5739 15.0351C25.5421 14.7788 26.3679 14.551 27.2506 14.3232C27.1083 14.1239 27.0228 13.9815 26.9089 13.8676C27.7347 12.814 29.728 13.0134 30.1837 13.7822C29.3009 13.8676 28.5606 14.2663 27.934 14.8643C27.7632 14.7504 27.6493 14.6365 27.45 14.4941C27.2222 15.3768 26.9944 16.2026 26.7665 17.0569C26.795 17.0854 26.8235 17.1138 26.852 17.1708C27.6778 16.943 28.5321 16.7152 29.4148 16.4874C29.2724 16.2881 29.1585 16.1457 29.0162 15.9748C29.3009 15.7755 29.5572 15.5761 29.842 15.4338C30.2406 15.2344 30.6393 15.2914 30.8955 15.5761C31.1518 15.8324 31.2088 16.2311 30.9525 16.6298L22.6661 25.0015V12.8425L23.2071 12.3015L22.6091 11.7035L22.8939 11.4187L23.5488 12.0737C23.6627 12.3015 23.919 12.4438 24.1753 12.4438C24.5739 12.4438 24.8872 12.1306 24.8872 11.732C24.8872 11.3903 24.6309 11.077 24.3177 11.0201C25.2289 10.7923 25.8838 9.99496 25.8838 9.0268C25.8838 8.48576 25.656 7.97321 25.3143 7.60303L23.8905 9.0268H23.2925L22.7515 9.56783L22.5237 9.34003L23.2356 8.62814H23.5203C23.6342 8.62814 23.6342 8.74204 23.6342 8.74204H23.7482V8.34339L23.4919 8.08714C23.6627 8.03019 23.6627 7.71693 23.5488 7.6315C23.4349 7.54608 23.2925 7.48912 23.2925 7.48912C23.2925 7.48912 23.2356 7.48912 23.1217 7.48912V7.26135H22.9508V7.48912H22.8369C22.6946 7.48912 22.6091 7.5461 22.6091 7.5461C22.3244 7.66001 22.4383 7.88781 22.4668 7.97324L22.2674 7.77388L22.4098 7.66001C22.5807 7.60305 22.5807 7.2898 22.4668 7.20437C22.3529 7.11894 22.2105 7.06199 22.2105 7.06199C22.2105 7.06199 22.1535 7.06199 22.0396 7.06199V6.83422H21.8688V7.06199H21.7549C21.6125 7.06199 21.5271 7.11897 21.5271 7.11897C21.1854 7.26135 21.3847 7.57455 21.3847 7.57455L21.6125 7.80238C21.6125 7.80238 21.5271 7.88781 21.4132 7.97324C21.4416 7.85933 21.4416 7.71696 21.3562 7.66001C21.2423 7.57458 21.0999 7.51763 21.0999 7.51763C21.0999 7.51763 21.043 7.51763 20.9291 7.51763V7.2898H20.7582V7.51763H20.6443C20.502 7.51763 20.4165 7.57455 20.4165 7.57455C20.0748 7.71693 20.2741 8.03016 20.2741 8.03016L20.4165 8.17253L20.1887 8.40037V8.79902H20.3026C20.3026 8.79902 20.3026 8.68512 20.4165 8.68512H20.6443L21.3277 9.36853L21.0999 9.62478L20.5589 9.08378H19.9609L18.5371 7.66001C18.1954 8.03019 17.9676 8.54274 17.9676 9.08378C17.9676 10.2228 18.8789 11.134 20.0179 11.134C20.2172 11.134 20.388 11.1055 20.5874 11.0486L20.7013 11.1625L20.0748 11.7889L20.0463 11.8174C19.9609 11.8174 19.8185 11.8174 19.6762 11.8743L18.9928 11.1909C18.9928 11.1625 19.0212 11.134 19.0212 11.1055C19.0212 10.9632 18.9073 10.8492 18.765 10.8492C18.6226 10.8492 18.5087 10.9632 18.5087 11.1055C18.5087 11.2479 18.6226 11.3618 18.765 11.3618C18.7934 11.3618 18.8219 11.3618 18.8504 11.3618L19.5338 12.0452C19.4768 12.1876 19.5338 12.3585 19.7046 12.5293C19.8755 12.6717 20.0179 12.6717 20.1318 12.6432L20.3026 12.8141L20.4735 12.6432L20.3311 12.5008C20.3596 12.4154 20.388 12.273 20.3596 12.1591L21.043 11.4757L21.3277 11.7604L20.7298 12.3585L21.3277 12.9564V25.03L11.3329 14.9212C10.6779 14.2663 10.7918 13.6968 11.6746 13.3836C13.1553 12.871 14.5791 13.0134 15.9174 13.7822C16.0313 13.8676 16.1737 13.9531 16.3161 14.067C16.2022 14.2094 16.1167 14.2948 16.0313 14.3802C15.7181 14.7219 15.7466 14.8073 16.1737 14.9212C17.0564 15.149 17.9107 15.3768 18.7934 15.6331C18.9073 15.6616 18.9928 15.6616 19.1921 15.69C18.8789 14.5795 18.6226 13.5544 18.3378 12.5293C18.2809 12.33 18.1385 12.3299 17.9961 12.4438C17.8253 12.5862 17.6544 12.7571 17.512 12.8995C17.4551 12.871 17.4266 12.871 17.3981 12.871C17.2842 12.7856 17.1703 12.7002 17.0564 12.6432C14.8069 11.2479 12.5004 11.1625 10.1654 12.4154C9.65281 12.7001 9.1972 12.8995 8.59922 12.8425C8.25752 12.814 8.11514 12.9564 8.17209 13.2981C8.22904 13.8676 8.05819 14.3233 7.77343 14.8073C6.49204 17.0854 6.57746 19.3634 7.91581 21.613C8.22904 22.154 8.25751 22.154 7.85886 22.6096C7.68801 22.8089 7.65953 22.9798 7.97276 23.0652C8.88397 23.3215 9.82366 23.5777 10.7349 23.8055C10.9912 23.8625 11.0766 23.7771 11.0196 23.5208C10.7634 22.6096 10.5355 21.6699 10.2793 20.7587C10.1938 20.5024 10.0515 20.4739 9.85214 20.6448C9.70976 20.7587 9.59586 20.8726 9.39653 21.0435C9.33958 20.958 9.33958 20.9011 9.31111 20.8726C9.25415 20.7872 9.1972 20.7018 9.14025 20.6163C8.37142 19.278 8.25752 17.8542 8.77007 16.4019C9.0833 15.5192 9.65281 15.4053 10.3077 16.0603L20.9006 26.6246L20.986 26.7101L13.9241 33.8574C13.6678 34.1137 13.497 34.1706 13.1268 34.0283C10.8773 33.0316 8.34294 34.7117 8.39989 37.1321C8.42837 38.4989 9.25415 39.7233 10.5071 40.2074C11.7885 40.72 13.2407 40.4352 14.1804 39.4671C15.1486 38.4989 15.4618 37.0466 14.8923 35.7937C14.7214 35.3951 14.8069 35.1957 15.0916 34.911L21.3277 28.7034L21.5555 28.4755V39.0399C21.1569 39.2393 20.9006 39.6379 20.9006 40.122C20.9006 40.8054 21.4416 41.3464 22.1251 41.3464C22.8085 41.3464 23.3495 40.8054 23.3495 40.122C23.3495 39.6949 23.1217 39.2962 22.78 39.0969V28.5325L27.8486 33.6011C27.3361 34.1137 26.8235 34.5978 26.3394 35.0818C25.4567 36.0215 25.3997 35.6514 26.3679 36.648C26.5672 36.8473 26.7096 36.8188 26.8804 36.648C27.3645 36.1639 27.8771 35.6514 28.3612 35.1673C28.5321 34.9964 28.7029 34.8256 28.8738 34.6832C29.5857 35.1957 29.5857 35.2242 29.3294 35.9646C28.7599 37.5592 29.4148 39.3247 30.924 40.0935C32.4047 40.8908 34.2556 40.4352 35.2523 39.0969C36.2204 37.7301 36.0496 35.8507 34.8536 34.6832C33.857 33.7435 32.4047 33.4872 31.0664 34.0852C30.924 34.1422 30.7247 34.1706 30.6108 34.1137C30.383 33.9713 30.2406 33.7435 30.0128 33.5442C30.1552 33.4018 30.2406 33.2879 30.3545 33.2025C30.8955 32.6614 31.4366 32.0919 32.0061 31.5509C32.2339 31.3516 32.2339 31.1807 32.0061 30.9814C31.8352 30.839 31.6644 30.6682 31.522 30.4973C31.3227 30.2695 31.1803 30.2695 30.9525 30.4973C30.5538 30.9244 30.1552 31.2946 29.7565 31.6933C29.5002 31.9495 29.3009 32.2343 29.0731 32.5191C27.1083 30.5258 25.2289 28.6464 23.3495 26.7385C23.378 26.7101 23.4349 26.6531 23.4919 26.5677L23.5203 26.5392C26.2255 23.834 28.9307 21.1289 31.6644 18.4237C31.9207 18.1674 32.2624 17.9681 32.6041 17.8257C33.1736 17.5979 33.7146 18.0251 33.6577 18.6515C33.6292 19.1356 33.316 19.5058 32.9742 19.819C32.8319 19.7051 32.6895 19.6197 32.4902 19.4773C32.2624 20.36 32.0346 21.2143 31.7783 22.154C32.7464 21.8977 33.5722 21.6699 34.4834 21.4421C34.3411 21.2428 34.2272 21.1004 34.1133 20.958C34.7113 20.3315 35.1099 19.5627 35.1953 18.7084C36.0496 19.278 36.0781 21.3282 35.0814 21.9546C34.9675 21.8692 34.8252 21.7838 34.6543 21.6414C34.4265 22.5242 34.1987 23.3784 33.9424 24.3181C34.9106 24.0619 35.7364 23.834 36.5906 23.6062C36.3343 23.0937 36.3343 23.0937 36.6761 22.6381C37.1032 21.7553 37.3879 20.8441 37.274 19.8475ZM23.3495 10.9916C23.5203 11.0486 23.7197 11.0771 23.919 11.0771H23.9475C23.8051 11.1625 23.6627 11.2764 23.6058 11.4187L23.2641 11.0771L23.3495 10.9916ZM11.6746 38.8691C10.6495 38.8691 9.88061 38.0718 9.88061 37.0467C9.88061 36.05 10.6779 35.2527 11.6746 35.2527C12.6997 35.2527 13.497 36.05 13.497 37.0467C13.497 38.0718 12.6997 38.8691 11.6746 38.8691ZM22.182 8.62814L22.0396 8.77052L21.584 8.31491L22.0396 7.85931L22.4952 8.31491L22.182 8.62814ZM32.4332 35.2527C33.4299 35.2527 34.2272 36.05 34.2272 37.0467C34.2272 38.0718 33.4299 38.8691 32.4047 38.8691C31.3796 38.8691 30.5823 38.0433 30.5823 37.0467C30.6108 36.05 31.4081 35.2527 32.4332 35.2527Z" fill="var(--fill-0, white)"/>
</g>
</svg>
