<svg preserveAspectRatio="none" width="100%" height="100%" overflow="visible" style="display: block;" viewBox="0 0 25.4995 24.4485" fill="none" xmlns="http://www.w3.org/2000/svg">
<path id="Vector" d="M24.9875 4.0386L12.9875 0.0385973C12.8333 -0.0128658 12.6667 -0.0128658 12.5125 0.0385973L0.5125 4.0386C0.36327 4.08842 0.233485 4.1839 0.141511 4.31155C0.0495375 4.43919 3.20252e-05 4.59252 0 4.74985V14.7498C0 14.9488 0.0790175 15.1395 0.21967 15.2802C0.360322 15.4208 0.551088 15.4998 0.75 15.4998C0.948912 15.4998 1.13968 15.4208 1.28033 15.2802C1.42098 15.1395 1.5 14.9488 1.5 14.7498V5.78985L6.335 7.40235C5.72528 8.30342 5.31212 9.32277 5.12239 10.3941C4.93266 11.4654 4.97062 12.5646 5.2338 13.6203C5.49698 14.6759 5.97948 15.6644 6.6499 16.5212C7.32032 17.3781 8.16365 18.0842 9.125 18.5936C6.71875 19.4098 4.625 21.0423 3.125 23.3436C3.03878 23.5087 3.0171 23.7001 3.0642 23.8803C3.11129 24.0606 3.22379 24.2168 3.37977 24.3187C3.53576 24.4205 3.72407 24.4607 3.90804 24.4313C4.09201 24.402 4.25847 24.3052 4.375 24.1598C6.30875 21.1986 9.36 19.4998 12.75 19.4998C16.14 19.4998 19.1912 21.1986 21.125 24.1598C21.2408 24.3083 21.4082 24.4077 21.594 24.4384C21.7797 24.4691 21.9703 24.4289 22.1277 24.3256C22.2851 24.2223 22.3979 24.0636 22.4438 23.881C22.4896 23.6984 22.465 23.5052 22.375 23.3398C20.875 21.0423 18.7838 19.4098 16.375 18.5898C17.3358 18.0799 18.1786 17.3734 18.8484 16.5163C19.5182 15.6591 20 14.6706 20.2626 13.615C20.5252 12.5594 20.5626 11.4603 20.3724 10.3893C20.1822 9.31828 19.7687 8.29928 19.1588 7.3986L24.9875 5.4611C25.1366 5.4112 25.2663 5.31568 25.3582 5.18804C25.4501 5.06041 25.4995 4.90712 25.4995 4.74985C25.4995 4.59258 25.4501 4.43929 25.3582 4.31165C25.2663 4.18402 25.1366 4.0885 24.9875 4.0386ZM19 11.7498C19.0004 12.7458 18.7629 13.7274 18.3071 14.6129C17.8513 15.4984 17.1906 16.2621 16.3798 16.8405C15.5691 17.4189 14.6319 17.7952 13.6462 17.938C12.6606 18.0808 11.6551 17.986 10.7136 17.6615C9.77201 17.337 8.92163 16.7922 8.23327 16.0725C7.54491 15.3528 7.03851 14.479 6.75626 13.5239C6.47401 12.5688 6.42408 11.5601 6.61063 10.5819C6.79719 9.60357 7.21483 8.68403 7.82875 7.89985L12.5125 9.4611C12.6667 9.51256 12.8333 9.51256 12.9875 9.4611L17.6712 7.89985C18.5335 8.99779 19.0015 10.3538 19 11.7498ZM12.75 7.95985L3.125 4.74985L12.75 1.53985L22.375 4.74985L12.75 7.95985Z" fill="var(--fill-0, white)"/>
</svg>
