<svg preserveAspectRatio="none" width="100%" height="100%" overflow="visible" style="display: block;" viewBox="0 0 23.5 24.5008" fill="none" xmlns="http://www.w3.org/2000/svg">
<path id="Vector" d="M8.75 23.7508V15.7508H14.75V23.7508H22.75V11.7508C22.7501 11.6194 22.7243 11.4893 22.6741 11.3679C22.6239 11.2465 22.5503 11.1362 22.4575 11.0433L12.4575 1.04329C12.3646 0.95031 12.2543 0.876551 12.1329 0.826227C12.0115 0.775903 11.8814 0.75 11.75 0.75C11.6186 0.75 11.4885 0.775903 11.3671 0.826227C11.2457 0.876551 11.1354 0.95031 11.0425 1.04329L1.0425 11.0433C0.949666 11.1362 0.876052 11.2465 0.825864 11.3679C0.775676 11.4893 0.749897 11.6194 0.75 11.7508V23.7508H8.75Z" stroke="var(--stroke-0, white)" stroke-width="1.5" stroke-linecap="round" stroke-linejoin="round"/>
</svg>
