<svg preserveAspectRatio="none" width="100%" height="100%" overflow="visible" style="display: block;" viewBox="0 0 22 23.0008" fill="none" xmlns="http://www.w3.org/2000/svg">
<path id="Vector" opacity="0.2" d="M22 11.0008V23.0008H14V15.0008H8V23.0008H3.09201e-07V11.0008C-0.000102986 10.8694 0.0256756 10.7393 0.0758637 10.6179C0.126052 10.4965 0.199666 10.3862 0.2925 10.2933L10.2925 0.293287C10.3854 0.20031 10.4957 0.126551 10.6171 0.0762269C10.7385 0.0259027 10.8686 0 11 0C11.1314 0 11.2615 0.0259027 11.3829 0.0762269C11.5043 0.126551 11.6146 0.20031 11.7075 0.293287L21.7075 10.2933C21.8003 10.3862 21.8739 10.4965 21.9241 10.6179C21.9743 10.7393 22.0001 10.8694 22 11.0008Z" fill="var(--fill-0, white)"/>
</svg>
