<svg preserveAspectRatio="none" width="100%" height="100%" overflow="visible" style="display: block;" viewBox="0 0 83.3524 99.3482" fill="none" xmlns="http://www.w3.org/2000/svg">
<g id="Group 7">
<path id="Vector" d="M1.36762e-05 0V84.7125C1.36762e-05 89.446 3.86295 93.3089 8.59641 93.3089H34.44C36.9427 93.6898 39.2279 95.1588 40.6424 97.2807L42.0026 99.3482L43.3628 97.2807C44.7774 95.1588 47.0081 93.6898 49.5109 93.3089H74.756C79.4894 93.3089 83.3524 89.446 83.3524 84.7125V0H1.36762e-05ZM74.8104 89.9901H49.4565H49.2388C46.5185 90.4253 43.9613 91.7311 42.057 93.7442C40.1528 91.7855 37.5412 90.4253 34.8208 89.9901H8.59641C5.6584 89.9901 3.31887 87.6506 3.31887 84.7125V3.31881H80.0879V84.7125C80.0879 87.6506 77.7484 89.9901 74.8104 89.9901Z" fill="var(--fill-0, white)"/>
<path id="Vector_2" d="M39.7718 50.8175C39.8263 50.8719 39.8807 50.9263 39.9351 50.9807L39.7718 50.8175ZM28.6183 66.6501C32.5356 62.7871 36.453 58.8698 40.3703 54.9525C40.4247 54.898 40.4791 54.8436 40.5336 54.7892L28.6183 66.6501Z" fill="var(--fill-0, white)"/>
<path id="Vector_3" d="M71.2183 37.9224C70.7831 33.7874 67.8451 31.1214 63.7101 30.9038C62.5675 30.8494 62.4587 30.6862 62.4043 29.5981C62.2411 26.4968 60.8265 24.1029 57.9429 22.7971C55.1137 21.4913 52.3932 21.8721 49.8905 23.7764C49.6728 23.9396 49.4552 24.1028 49.2376 24.2661C48.9655 24.0484 48.6935 23.8853 48.3126 23.6132C47.8774 25.3543 47.4421 26.932 46.9525 28.7275C48.8023 28.2378 50.3801 27.8025 52.0668 27.3673C51.7947 26.9864 51.6315 26.7144 51.4139 26.4968C52.9917 24.4837 56.8003 24.8646 57.6709 26.3336C55.9842 26.4968 54.5696 27.2585 53.3726 28.401C53.0461 28.1834 52.8285 27.9658 52.4476 27.6938C52.0124 29.3804 51.5771 30.9582 51.1418 32.5905C51.1963 32.6449 51.2507 32.6992 51.3051 32.808C52.8829 32.3728 54.5152 31.9376 56.2019 31.5023C55.9298 31.1215 55.7122 30.8494 55.4401 30.5229C55.9842 30.1421 56.4739 29.7612 57.018 29.4892C57.7797 29.1083 58.5414 29.2171 59.031 29.7612C59.5207 30.2509 59.6295 31.0126 59.1399 31.7744L43.3072 47.7701V24.5381L44.3409 23.5044L43.1983 22.3618L43.7424 21.8177L44.9938 23.0691C45.2114 23.5044 45.7011 23.7764 46.1908 23.7764C46.9525 23.7764 47.5509 23.1779 47.5509 22.4162C47.5509 21.7633 47.0613 21.1648 46.4628 21.056C48.2038 20.6208 49.4552 19.0973 49.4552 17.2475C49.4552 16.2137 49.0199 15.2344 48.3671 14.5271L45.6467 17.2475H44.5041L43.4704 18.2812L43.0351 17.846L44.3953 16.4858H44.9394C45.157 16.4858 45.157 16.7034 45.157 16.7034H45.3746V15.9417L44.885 15.4521C45.2114 15.3433 45.2114 14.7447 44.9938 14.5815C44.7762 14.4183 44.5041 14.3095 44.5041 14.3095C44.5041 14.3095 44.3953 14.3095 44.1777 14.3095V13.8743H43.8512V14.3095H43.6336C43.3616 14.3095 43.1983 14.4183 43.1983 14.4183C42.6543 14.636 42.8719 15.0712 42.9263 15.2345L42.5454 14.8536L42.8175 14.636C43.1439 14.5272 43.1439 13.9286 42.9263 13.7654C42.7087 13.6022 42.4366 13.4934 42.4366 13.4934C42.4366 13.4934 42.3278 13.4934 42.1102 13.4934V13.0582H41.7837V13.4934H41.5661C41.2941 13.4934 41.1309 13.6022 41.1309 13.6022C40.478 13.8743 40.8588 14.4727 40.8588 14.4727L41.2941 14.908C41.2941 14.908 41.1309 15.0712 40.9132 15.2345C40.9676 15.0168 40.9676 14.7448 40.8044 14.636C40.5868 14.4728 40.3147 14.3639 40.3147 14.3639C40.3147 14.3639 40.2059 14.3639 39.9883 14.3639V13.9286H39.6619V14.3639H39.4442C39.1722 14.3639 39.009 14.4727 39.009 14.4727C38.3561 14.7447 38.7369 15.3432 38.7369 15.3432L39.009 15.6153L38.5737 16.0506V16.8123H38.7913C38.7913 16.8123 38.7913 16.5946 39.009 16.5946H39.4442L40.75 17.9004L40.3147 18.39L39.281 17.3564H38.1384L35.4181 14.636C34.7652 15.3433 34.3299 16.3226 34.3299 17.3564C34.3299 19.5327 36.071 21.2736 38.2473 21.2736C38.6281 21.2736 38.9546 21.2192 39.3354 21.1104L39.553 21.328L38.3561 22.5251L38.3017 22.5795C38.1384 22.5795 37.8664 22.5794 37.5944 22.6882L36.2886 21.3825C36.2886 21.3281 36.343 21.2737 36.343 21.2193C36.343 20.9473 36.1254 20.7296 35.8533 20.7296C35.5813 20.7296 35.3637 20.9473 35.3637 21.2193C35.3637 21.4913 35.5813 21.709 35.8533 21.709C35.9077 21.709 35.9621 21.709 36.0165 21.709L37.3223 23.0147C37.2135 23.2867 37.3223 23.6132 37.6488 23.9397C37.9752 24.2117 38.2473 24.2117 38.4649 24.1573L38.7913 24.4837L39.1178 24.1573L38.8457 23.8853C38.9001 23.722 38.9546 23.4499 38.9001 23.2323L40.2059 21.9265L40.75 22.4706L39.6074 23.6132L40.75 24.7558V47.8246L21.653 28.5099C20.4016 27.2585 20.6192 26.1704 22.3058 25.5719C25.135 24.5926 27.8554 24.8646 30.4126 26.3336C30.6302 26.4968 30.9022 26.66 31.1743 26.8777C30.9566 27.1497 30.7934 27.3129 30.6302 27.4762C30.0317 28.129 30.0861 28.2923 30.9022 28.5099C32.5889 28.9452 34.2211 29.3804 35.9077 29.8701C36.1254 29.9245 36.2886 29.9244 36.6694 29.9788C36.071 27.857 35.5813 25.8983 35.0372 23.9397C34.9284 23.5588 34.6564 23.5588 34.3843 23.7764C34.0579 24.0484 33.7314 24.3749 33.4594 24.6469C33.3506 24.5925 33.2962 24.5925 33.2418 24.5925C33.0241 24.4293 32.8065 24.2661 32.5889 24.1573C28.2907 21.4913 23.8837 21.3281 19.4222 23.722C18.4429 24.2661 17.5724 24.6469 16.4298 24.5381C15.7769 24.4837 15.5049 24.7557 15.6137 25.4086C15.7225 26.4968 15.3961 27.3673 14.852 28.2923C12.4037 32.6449 12.5669 36.9975 15.124 41.2957C15.7225 42.3294 15.7769 42.3294 15.0152 43.1999C14.6888 43.5808 14.6344 43.9072 15.2329 44.0705C16.9739 44.5601 18.7694 45.0497 20.5104 45.485C21.0001 45.5938 21.1633 45.4306 21.0545 44.9409C20.5648 43.1999 20.1295 41.4045 19.6399 39.6634C19.4767 39.1738 19.2046 39.1194 18.8238 39.4458C18.5517 39.6634 18.3341 39.8811 17.9532 40.2075C17.8444 40.0443 17.8444 39.9354 17.79 39.881C17.6812 39.7178 17.5724 39.5546 17.4636 39.3914C15.9946 36.8343 15.7769 34.1138 16.7563 31.339C17.3548 29.6524 18.4429 29.4348 19.6943 30.6862L39.9339 50.8714L40.0971 51.0346L26.604 64.6909C26.1144 65.1806 25.7879 65.2894 25.0806 65.0174C20.7824 63.1131 15.9402 66.3231 16.049 70.9478C16.1034 73.5594 17.6812 75.8989 20.0751 76.8238C22.5235 77.8031 25.2983 77.2591 27.0937 75.4092C28.9436 73.5593 29.542 70.7846 28.4539 68.3906C28.1275 67.6289 28.2907 67.2481 28.8348 66.704L40.75 54.8432L41.1853 54.4079V74.5931C40.4236 74.9739 39.9339 75.7357 39.9339 76.6606C39.9339 77.9664 40.9676 79.0001 42.2734 79.0001C43.5792 79.0001 44.6129 77.9664 44.6129 76.6606C44.6129 75.8445 44.1777 75.0828 43.5248 74.7019V54.5167L53.2093 64.2012C52.23 65.1806 51.2507 66.1055 50.3257 67.0304C48.6391 68.8259 48.5303 68.1186 50.3801 70.0229C50.761 70.4037 51.033 70.3493 51.3595 70.0229C52.2844 69.0979 53.2637 68.1186 54.1887 67.1937C54.5152 66.8672 54.8417 66.5408 55.1681 66.2687C56.5283 67.2481 56.5283 67.3025 56.0386 68.7171C54.9505 71.7639 56.2019 75.1372 59.0855 76.6062C61.9146 78.1296 65.4511 77.2591 67.3554 74.7019C69.2053 72.0903 68.8788 68.4994 66.5937 66.2687C64.6894 64.4733 61.9146 63.9836 59.3575 65.1262C59.0855 65.235 58.7046 65.2894 58.487 65.1806C58.0517 64.9085 57.7797 64.4733 57.3444 64.0924C57.6164 63.8204 57.7797 63.6028 57.9973 63.4395C59.031 62.4058 60.0648 61.3177 61.1529 60.2839C61.5882 59.9031 61.5882 59.5766 61.1529 59.1958C60.8265 58.9237 60.5 58.5973 60.228 58.2708C59.8472 57.8356 59.5751 57.8356 59.1399 58.2708C58.3782 59.0869 57.6164 59.7942 56.8547 60.5559C56.3651 61.0456 55.9842 61.5897 55.549 62.1338C51.7947 58.3252 48.2038 54.7343 44.6129 51.089C44.6673 51.0346 44.7762 50.9258 44.885 50.7626L44.9394 50.7082C50.1081 45.5395 55.2769 40.3707 60.5 35.202C60.9897 34.7123 61.6426 34.3315 62.2955 34.0594C63.3836 33.6242 64.4174 34.4403 64.3086 35.6373C64.2542 36.5622 63.6557 37.2695 63.0028 37.8679C62.7308 37.6503 62.4587 37.4871 62.0779 37.2151C61.6426 38.9017 61.2073 40.5339 60.7177 42.3294C62.5675 41.8397 64.1454 41.4044 65.8864 40.9692C65.6144 40.5883 65.3967 40.3163 65.1791 40.0442C66.3217 38.8473 67.0834 37.3783 67.2466 35.7461C68.8788 36.8342 68.9332 40.7515 67.029 41.9485C66.8113 41.7853 66.5393 41.6221 66.2128 41.3501C65.7776 43.0367 65.3423 44.6689 64.8527 46.4644C66.7025 45.9747 68.2803 45.5395 69.9126 45.1042C69.4229 44.1249 69.4229 44.1249 70.0758 43.2543C70.8919 41.5677 71.436 39.8266 71.2183 37.9224ZM44.6129 21.0016C44.9394 21.1104 45.3202 21.1649 45.7011 21.1649H45.7555C45.4835 21.3281 45.2114 21.5457 45.1026 21.8177L44.4497 21.1649L44.6129 21.0016ZM22.3058 74.2666C20.3472 74.2666 18.8782 72.7432 18.8782 70.7846C18.8782 68.8803 20.4016 67.3569 22.3058 67.3569C24.2645 67.3569 25.7879 68.8803 25.7879 70.7846C25.7879 72.7432 24.2645 74.2666 22.3058 74.2666ZM42.3822 16.4858L42.1102 16.7578L41.2397 15.8873L42.1102 15.0168L42.9807 15.8873L42.3822 16.4858ZM61.9691 67.3569C63.8733 67.3569 65.3967 68.8803 65.3967 70.7846C65.3967 72.7432 63.8733 74.2666 61.9146 74.2666C59.956 74.2666 58.4326 72.6888 58.4326 70.7846C58.487 68.8803 60.0104 67.3569 61.9691 67.3569Z" fill="var(--fill-0, white)"/>
</g>
</svg>
