<svg preserveAspectRatio="none" width="100%" height="100%" overflow="visible" style="display: block;" viewBox="0 0 28.9978 23.9995" fill="none" xmlns="http://www.w3.org/2000/svg">
<path id="Vector" d="M28.8733 8.17125L21.8733 0.17125C21.8265 0.117688 21.7689 0.0747081 21.7043 0.0451779C21.6396 0.0156477 21.5694 0.000245949 21.4983 0H7.49829C7.4272 0.000245949 7.35698 0.0156477 7.29232 0.0451779C7.22765 0.0747081 7.17003 0.117688 7.12329 0.17125L0.123289 8.17125C0.0418973 8.26451 -0.00200762 8.38465 7.05383e-05 8.50841C0.00214869 8.63218 0.0500622 8.75077 0.134539 8.84125L14.1345 23.8412C14.1813 23.8912 14.2378 23.931 14.3006 23.9583C14.3634 23.9855 14.4311 23.9995 14.4995 23.9995C14.568 23.9995 14.6357 23.9855 14.6985 23.9583C14.7612 23.931 14.8178 23.8912 14.8645 23.8412L28.8645 8.84125C28.9487 8.75046 28.9961 8.6317 28.9977 8.50793C28.9994 8.38417 28.955 8.2642 28.8733 8.17125ZM8.15954 9L13.0433 21.2075L1.64829 9H8.15954ZM19.7595 9L14.4983 22.1537L9.23704 9H19.7595ZM9.49829 8L14.4983 1.33375L19.4983 8H9.49829ZM20.837 9H27.3483L15.9533 21.2075L20.837 9ZM27.3958 8H20.7483L15.4983 1H21.2708L27.3958 8ZM7.72579 1H13.4983L8.24829 8H1.60079L7.72579 1Z" fill="var(--fill-0, white)"/>
</svg>
