<svg preserveAspectRatio="none" width="100%" height="100%" overflow="visible" style="display: block;" viewBox="0 0 23.5 24.5001" fill="none" xmlns="http://www.w3.org/2000/svg">
<path id="Vector" d="M22.9875 10.5126L12.9875 0.512626C12.825 0.350105 12.6321 0.221185 12.4197 0.133228C12.2074 0.0452712 11.9798 0 11.75 0C11.5202 0 11.2926 0.0452712 11.0803 0.133228C10.8679 0.221185 10.675 0.350105 10.5125 0.512626L0.512505 10.5126C0.349562 10.6748 0.220375 10.8677 0.132409 11.0801C0.0444423 11.2925 -0.000558923 11.5202 5.23945e-06 11.7501V23.7501C5.23945e-06 23.949 0.0790228 24.1398 0.219675 24.2805C0.360327 24.4211 0.551093 24.5001 0.750005 24.5001H8.75C8.94892 24.5001 9.13968 24.4211 9.28033 24.2805C9.42099 24.1398 9.5 23.949 9.5 23.7501V16.5001H14V23.7501C14 23.949 14.079 24.1398 14.2197 24.2805C14.3603 24.4211 14.5511 24.5001 14.75 24.5001H22.75C22.9489 24.5001 23.1397 24.4211 23.2803 24.2805C23.421 24.1398 23.5 23.949 23.5 23.7501V11.7501C23.5006 11.5202 23.4556 11.2925 23.3676 11.0801C23.2796 10.8677 23.1504 10.6748 22.9875 10.5126ZM22 23.0001H15.5V15.7501C15.5 15.5512 15.421 15.3604 15.2803 15.2198C15.1397 15.0791 14.9489 15.0001 14.75 15.0001H8.75C8.55109 15.0001 8.36033 15.0791 8.21968 15.2198C8.07902 15.3604 8 15.5512 8 15.7501V23.0001H1.50001V11.7501C1.49982 11.7172 1.50612 11.6846 1.51856 11.6542C1.531 11.6237 1.54934 11.596 1.57251 11.5726L11.5725 1.57263C11.5957 1.54919 11.6234 1.5306 11.6539 1.5179C11.6843 1.50521 11.717 1.49868 11.75 1.49868C11.783 1.49868 11.8157 1.50521 11.8461 1.5179C11.8766 1.5306 11.9043 1.54919 11.9275 1.57263L21.9275 11.5726C21.9507 11.596 21.969 11.6237 21.9814 11.6542C21.9939 11.6846 22.0002 11.7172 22 11.7501V23.0001Z" fill="var(--fill-0, white)"/>
</svg>
