<svg preserveAspectRatio="none" width="100%" height="100%" overflow="visible" style="display: block;" viewBox="0 0 29.4932 24.4888" fill="none" xmlns="http://www.w3.org/2000/svg">
<path id="Vector" d="M29.313 8.25627L22.313 0.256274C22.2425 0.175728 22.1557 0.111188 22.0582 0.0669902C21.9608 0.0227922 21.855 -4.12161e-05 21.748 2.36986e-05H7.74799C7.64146 -0.00082314 7.53597 0.0210346 7.43855 0.0641416C7.34113 0.107249 7.25401 0.170616 7.18299 0.250024L0.182991 8.25002C0.062216 8.38952 -0.00289885 8.56864 9.9098e-05 8.75313C0.00309705 8.93762 0.0739975 9.11453 0.199241 9.25002L14.1992 24.25C14.2694 24.3254 14.3544 24.3854 14.4488 24.4265C14.5432 24.4676 14.645 24.4888 14.748 24.4888C14.8509 24.4888 14.9528 24.4676 15.0472 24.4265C15.1416 24.3854 15.2266 24.3254 15.2967 24.25L29.2967 9.25002C29.4203 9.11491 29.4901 8.93927 29.4931 8.75623C29.4961 8.57318 29.432 8.39536 29.313 8.25627ZM8.24049 9.50002L12.5655 20.3113L2.47424 9.50002H8.24049ZM19.6405 9.50002L14.748 21.73L9.85549 9.50002H19.6405ZM10.248 8.00002L14.748 2.00002L19.248 8.00002H10.248ZM21.2555 9.50002H27.0217L16.9305 20.3113L21.2555 9.50002ZM27.0955 8.00002H21.123L16.248 1.50002H21.408L27.0955 8.00002ZM8.08799 1.50002H13.248L8.37299 8.00002H2.40049L8.08799 1.50002Z" fill="var(--fill-0, white)"/>
</svg>
