<svg preserveAspectRatio="none" width="100%" height="100%" overflow="visible" style="display: block;" viewBox="0 0 26.9989 26.0177" fill="none" xmlns="http://www.w3.org/2000/svg">
<path id="Vector" d="M25.9748 4.0778L13.9748 0.0778034C13.6675 -0.0259345 13.3346 -0.0259345 13.0273 0.0778034L1.02728 4.0778C0.740944 4.17264 0.489853 4.35159 0.306778 4.5913C0.123703 4.83102 0.0171496 5.12036 0.00102575 5.42155C-0.000341916 5.44779 -0.000341916 5.47407 0.00102575 5.5003V15.5003C0.00102575 15.8981 0.159061 16.2797 0.440366 16.561C0.72167 16.8423 1.1032 17.0003 1.50103 17.0003C1.89885 17.0003 2.28038 16.8423 2.56169 16.561C2.84299 16.2797 3.00103 15.8981 3.00103 15.5003V7.58155L5.96478 8.56905C5.04497 10.3297 4.77164 12.3571 5.19234 14.2984C5.61304 16.2398 6.70114 17.9722 8.26728 19.1941C6.21781 20.2047 4.48331 21.7559 3.25103 23.6803C3.14006 23.8452 3.06297 24.0306 3.02427 24.2256C2.98556 24.4205 2.98599 24.6213 3.02554 24.8161C3.06509 25.0109 3.14297 25.1959 3.25465 25.3604C3.36633 25.5248 3.50959 25.6654 3.67609 25.774C3.8426 25.8826 4.02902 25.9571 4.22454 25.993C4.42006 26.0289 4.62076 26.0256 4.81499 25.9832C5.00922 25.9409 5.1931 25.8604 5.35594 25.7464C5.51877 25.6323 5.65732 25.4871 5.76353 25.3191C7.54728 22.5741 10.376 21.0003 13.501 21.0003C16.626 21.0003 19.4548 22.5741 21.2448 25.3191C21.351 25.4871 21.4895 25.6323 21.6524 25.7464C21.8152 25.8604 21.9991 25.9409 22.1933 25.9832C22.3875 26.0256 22.5882 26.0289 22.7838 25.993C22.9793 25.9571 23.1657 25.8826 23.3322 25.774C23.4987 25.6654 23.642 25.5248 23.7536 25.3604C23.8653 25.1959 23.9432 25.0109 23.9828 24.8161C24.0223 24.6213 24.0227 24.4205 23.984 24.2256C23.9453 24.0306 23.8682 23.8452 23.7573 23.6803C22.5238 21.7537 20.787 20.201 18.7348 19.1903C20.3009 17.9684 21.389 16.236 21.8097 14.2947C22.2304 12.3533 21.9571 10.3259 21.0373 8.5653L25.9748 6.91905C26.2731 6.81926 26.5324 6.62822 26.7162 6.37295C26.9 6.11768 26.9989 5.81109 26.9989 5.49655C26.9989 5.18201 26.9 4.87543 26.7162 4.62016C26.5324 4.36489 26.2731 4.17385 25.9748 4.07405V4.0778ZM13.501 3.0778L20.7573 5.5003L13.501 7.91905L6.25103 5.5003L13.501 3.0778ZM19.001 12.5003C19.0012 13.3546 18.8023 14.1972 18.4202 14.9613C18.0382 15.7253 17.4833 16.3899 16.7998 16.9023C16.1162 17.4147 15.3226 17.7608 14.482 17.9131C13.6414 18.0655 12.7769 18.02 11.957 17.7802C11.137 17.5403 10.3842 17.1128 9.75826 16.5314C9.13229 15.9501 8.65034 15.2309 8.35062 14.4309C8.05091 13.6309 7.94167 12.7721 8.03156 11.9226C8.12146 11.073 8.40802 10.2561 8.86853 9.53655L13.0273 10.9228C13.3347 11.0262 13.6674 11.0262 13.9748 10.9228L18.1335 9.53655C18.7008 10.4209 19.0019 11.4497 19.001 12.5003Z" fill="var(--fill-0, white)"/>
</svg>
