<svg preserveAspectRatio="none" width="100%" height="100%" overflow="visible" style="display: block;" viewBox="0 0 23.5 27.5" fill="none" xmlns="http://www.w3.org/2000/svg">
<path id="Vector" d="M23.0613 5.43875L18.0613 0.438751C17.9218 0.299499 17.7564 0.189078 17.5743 0.113796C17.3922 0.0385136 17.197 -0.000154479 17 4.63799e-07H7C6.33696 4.63799e-07 5.70107 0.263393 5.23223 0.732234C4.76339 1.20107 4.5 1.83696 4.5 2.5V5H2.5C1.83696 5 1.20107 5.26339 0.732233 5.73223C0.263392 6.20107 0 6.83696 0 7.5V25C0 25.663 0.263392 26.2989 0.732233 26.7678C1.20107 27.2366 1.83696 27.5 2.5 27.5H16C16.663 27.5 17.2989 27.2366 17.7678 26.7678C18.2366 26.2989 18.5 25.663 18.5 25V22.5H21C21.663 22.5 22.2989 22.2366 22.7678 21.7678C23.2366 21.2989 23.5 20.663 23.5 20V6.5C23.5002 6.30296 23.4615 6.10782 23.3862 5.92573C23.3109 5.74363 23.2005 5.57816 23.0613 5.43875ZM15.5 24.5H3V8H11.375L15.5 12.125V24.5ZM20.5 19.5H18.5V11.5C18.5002 11.303 18.4615 11.1078 18.3862 10.9257C18.3109 10.7436 18.2005 10.5782 18.0613 10.4388L13.0613 5.43875C12.9218 5.2995 12.7564 5.18908 12.5743 5.1138C12.3922 5.03851 12.197 4.99985 12 5H7.5V3H16.375L20.5 7.125V19.5ZM13.5 16C13.5 16.3978 13.342 16.7794 13.0607 17.0607C12.7794 17.342 12.3978 17.5 12 17.5H6.5C6.10218 17.5 5.72064 17.342 5.43934 17.0607C5.15804 16.7794 5 16.3978 5 16C5 15.6022 5.15804 15.2206 5.43934 14.9393C5.72064 14.658 6.10218 14.5 6.5 14.5H12C12.3978 14.5 12.7794 14.658 13.0607 14.9393C13.342 15.2206 13.5 15.6022 13.5 16ZM13.5 21C13.5 21.3978 13.342 21.7794 13.0607 22.0607C12.7794 22.342 12.3978 22.5 12 22.5H6.5C6.10218 22.5 5.72064 22.342 5.43934 22.0607C5.15804 21.7794 5 21.3978 5 21C5 20.6022 5.15804 20.2206 5.43934 19.9393C5.72064 19.658 6.10218 19.5 6.5 19.5H12C12.3978 19.5 12.7794 19.658 13.0607 19.9393C13.342 20.2206 13.5 20.6022 13.5 21Z" fill="var(--fill-0, white)"/>
</svg>
