<svg preserveAspectRatio="none" width="100%" height="100%" overflow="visible" style="display: block;" viewBox="0 0 24 24.9991" fill="none" xmlns="http://www.w3.org/2000/svg">
<path id="Vector" d="M24 11.9991V23.9991C24 24.2643 23.8946 24.5186 23.7071 24.7062C23.5196 24.8937 23.2652 24.9991 23 24.9991H16C15.7348 24.9991 15.4804 24.8937 15.2929 24.7062C15.1054 24.5186 15 24.2643 15 23.9991V17.4991C15 17.3665 14.9473 17.2393 14.8536 17.1455C14.7598 17.0518 14.6326 16.9991 14.5 16.9991H9.5C9.36739 16.9991 9.24021 17.0518 9.14645 17.1455C9.05268 17.2393 9 17.3665 9 17.4991V23.9991C9 24.2643 8.89464 24.5186 8.70711 24.7062C8.51957 24.8937 8.26522 24.9991 8 24.9991H1C0.734784 24.9991 0.48043 24.8937 0.292893 24.7062C0.105357 24.5186 0 24.2643 0 23.9991V11.9991C0.000245862 11.4687 0.211121 10.9602 0.58625 10.5853L10.5863 0.585323C10.9613 0.210534 11.4698 0 12 0C12.5302 0 13.0387 0.210534 13.4137 0.585323L23.4137 10.5853C23.7889 10.9602 23.9998 11.4687 24 11.9991Z" fill="var(--fill-0, white)"/>
</svg>
