<svg preserveAspectRatio="none" width="100%" height="100%" overflow="visible" style="display: block;" viewBox="0 0 24 25.0003" fill="none" xmlns="http://www.w3.org/2000/svg">
<path id="Vector" d="M23.4138 10.5853L13.4138 0.585323C13.0387 0.210534 12.5302 0 12 0C11.4698 0 10.9613 0.210534 10.5863 0.585323L0.586262 10.5853C0.399643 10.7706 0.251711 10.991 0.151067 11.234C0.0504232 11.4769 -0.000923321 11.7374 1.25669e-05 12.0003V24.0003C1.25669e-05 24.2655 0.10537 24.5199 0.292906 24.7074C0.480442 24.895 0.734796 25.0003 1.00001 25.0003H9.00001C9.26523 25.0003 9.51958 24.895 9.70712 24.7074C9.89466 24.5199 10 24.2655 10 24.0003V17.0003H14V24.0003C14 24.2655 14.1054 24.5199 14.2929 24.7074C14.4804 24.895 14.7348 25.0003 15 25.0003H23C23.2652 25.0003 23.5196 24.895 23.7071 24.7074C23.8947 24.5199 24 24.2655 24 24.0003V12.0003C24.0009 11.7374 23.9496 11.4769 23.849 11.234C23.7483 10.991 23.6004 10.7706 23.4138 10.5853ZM22 23.0003H16V16.0003C16 15.7351 15.8947 15.4808 15.7071 15.2932C15.5196 15.1057 15.2652 15.0003 15 15.0003H9.00001C8.7348 15.0003 8.48044 15.1057 8.29291 15.2932C8.10537 15.4808 8.00001 15.7351 8.00001 16.0003V23.0003H2.00001V12.0003L12 2.00032L22 12.0003V23.0003Z" fill="var(--fill-0, white)"/>
</svg>
