<svg preserveAspectRatio="none" width="100%" height="100%" overflow="visible" style="display: block;" viewBox="0 0 178.164 31.5549" fill="none" xmlns="http://www.w3.org/2000/svg">
<g id="SPBRSI_logo 1" clip-path="url(#clip0_1016_241)">
<g id="Group 7">
<path id="Vector" d="M0 1.97363V27.169C0 28.5769 1.14892 29.7258 2.55676 29.7258H10.2432C10.9876 29.8391 11.6672 30.276 12.088 30.9071L12.4925 31.522L12.8971 30.9071C13.3178 30.276 13.9813 29.8391 14.7256 29.7258H22.2341C23.6419 29.7258 24.7909 28.5769 24.7909 27.169V1.97363H0ZM22.2503 28.7387H14.7095H14.6447C13.8356 28.8682 13.0751 29.2565 12.5087 29.8553C11.9423 29.2727 11.1656 28.8682 10.3565 28.7387H2.55676C1.68293 28.7387 0.987103 28.0429 0.987103 27.169V2.96072H23.8199V27.169C23.8199 28.0429 23.1241 28.7387 22.2503 28.7387Z" fill="var(--fill-0, white)"/>
<path id="Vector_2" d="M11.829 17.0879C11.8452 17.1041 11.8614 17.1203 11.8776 17.1364L11.829 17.0879ZM8.51172 21.7969C9.67682 20.6479 10.8419 19.4828 12.007 18.3177C12.0232 18.3015 12.0394 18.2854 12.0556 18.2692L8.51172 21.7969Z" fill="var(--fill-0, white)"/>
<path id="Vector_3" d="M21.1819 13.2526C21.0525 12.0228 20.1786 11.2298 18.9488 11.1651C18.609 11.1489 18.5766 11.1004 18.5604 10.7768C18.5119 9.85438 18.0912 9.14237 17.2335 8.754C16.392 8.36563 15.5829 8.47889 14.8385 9.04526C14.7738 9.09381 14.7091 9.14236 14.6444 9.1909C14.5634 9.12617 14.4825 9.07764 14.3693 8.99673C14.2398 9.51456 14.1103 9.98382 13.9647 10.5178C14.5149 10.3722 14.9842 10.2427 15.4858 10.1133C15.4049 10 15.3564 9.91909 15.2916 9.85436C15.7609 9.25563 16.8937 9.36892 17.1526 9.80583C16.651 9.85438 16.2302 10.0809 15.8742 10.4207C15.7771 10.356 15.7124 10.2913 15.5991 10.2104C15.4696 10.712 15.3402 11.1813 15.2107 11.6668C15.2269 11.6829 15.2431 11.6991 15.2593 11.7315C15.7286 11.602 16.214 11.4726 16.7157 11.3431C16.6348 11.2299 16.57 11.1489 16.4891 11.0518C16.651 10.9386 16.7966 10.8253 16.9584 10.7444C17.185 10.6311 17.4115 10.6635 17.5572 10.8253C17.7028 10.9709 17.7352 11.1975 17.5895 11.424L12.8805 16.1815V9.27181L13.188 8.96435L12.8482 8.62453L13.01 8.46271L13.3822 8.83491C13.4469 8.96437 13.5925 9.04526 13.7382 9.04526C13.9647 9.04526 14.1427 8.86726 14.1427 8.64071C14.1427 8.44653 13.9971 8.26853 13.8191 8.23616C14.3369 8.10671 14.7091 7.65361 14.7091 7.10342C14.7091 6.79596 14.5796 6.50469 14.3854 6.29432L13.5763 7.10342H13.2365L12.9291 7.41088L12.7996 7.28142L13.2042 6.87687H13.366C13.4307 6.87687 13.4307 6.9416 13.4307 6.9416H13.4954V6.71505L13.3498 6.56943C13.4469 6.53707 13.4469 6.35905 13.3822 6.3105C13.3174 6.26196 13.2365 6.22959 13.2365 6.22959C13.2365 6.22959 13.2042 6.22959 13.1394 6.22959V6.10015H13.0423V6.22959H12.9776C12.8967 6.22959 12.8482 6.26197 12.8482 6.26197C12.6863 6.3267 12.7511 6.45616 12.7672 6.5047L12.654 6.39141L12.7349 6.3267C12.832 6.29434 12.832 6.11632 12.7672 6.06777C12.7025 6.01923 12.6216 5.98686 12.6216 5.98686C12.6216 5.98686 12.5892 5.98686 12.5245 5.98686V5.85742H12.4274V5.98686H12.3627C12.2818 5.98686 12.2332 6.01924 12.2332 6.01924C12.039 6.10015 12.1523 6.27814 12.1523 6.27814L12.2818 6.40761C12.2818 6.40761 12.2332 6.45616 12.1685 6.5047C12.1847 6.43997 12.1847 6.35906 12.1361 6.3267C12.0714 6.27815 11.9905 6.24579 11.9905 6.24579C11.9905 6.24579 11.9581 6.24579 11.8934 6.24579V6.11632H11.7963V6.24579H11.7316C11.6507 6.24579 11.6021 6.27814 11.6021 6.27814C11.408 6.35905 11.5212 6.53705 11.5212 6.53705L11.6021 6.61796L11.4727 6.74743V6.97398H11.5374C11.5374 6.97398 11.5374 6.90925 11.6021 6.90925H11.7316L12.12 7.29762L11.9905 7.44324L11.683 7.1358H11.3432L10.5341 6.3267C10.3399 6.53707 10.2105 6.82834 10.2105 7.1358C10.2105 7.78308 10.7283 8.30089 11.3756 8.30089C11.4889 8.30089 11.586 8.28471 11.6992 8.25234L11.764 8.31707L11.408 8.67309L11.3918 8.68928C11.3432 8.68928 11.2623 8.68926 11.1814 8.72162L10.793 8.33326C10.793 8.31707 10.8092 8.30091 10.8092 8.28473C10.8092 8.20382 10.7445 8.13907 10.6636 8.13907C10.5827 8.13907 10.5179 8.20382 10.5179 8.28473C10.5179 8.36564 10.5827 8.43036 10.6636 8.43036C10.6798 8.43036 10.6959 8.43036 10.7121 8.43036L11.1005 8.81872C11.0681 8.89963 11.1005 8.99673 11.1976 9.09383C11.2947 9.17474 11.3756 9.17474 11.4403 9.15855L11.5374 9.25565L11.6345 9.15855L11.5536 9.07764C11.5698 9.0291 11.586 8.94817 11.5698 8.88344L11.9581 8.49508L12.12 8.6569L11.7801 8.99673L12.12 9.33656V16.1977L6.44007 10.4531C6.06788 10.0809 6.13261 9.75729 6.63425 9.57929C7.47572 9.28801 8.28482 9.36892 9.04538 9.80583C9.1101 9.85438 9.19101 9.90293 9.27192 9.96766C9.2072 10.0486 9.15865 10.0971 9.1101 10.1457C8.9321 10.3398 8.94828 10.3884 9.19101 10.4531C9.69266 10.5826 10.1781 10.712 10.6798 10.8577C10.7445 10.8738 10.793 10.8738 10.9063 10.89C10.7283 10.2589 10.5827 9.67638 10.4208 9.09383C10.3885 8.98055 10.3076 8.98054 10.2267 9.04526C10.1296 9.12617 10.0325 9.22327 9.95157 9.30418C9.9192 9.28799 9.90302 9.28799 9.88684 9.28799C9.82211 9.23945 9.75738 9.19092 9.69266 9.15855C8.41428 8.36563 7.10353 8.31707 5.77661 9.02908C5.48533 9.1909 5.22642 9.30418 4.8866 9.27181C4.69241 9.25563 4.6115 9.33654 4.64387 9.53072C4.67623 9.85436 4.57914 10.1133 4.41732 10.3884C3.68913 11.6829 3.73767 12.9775 4.49823 14.2559C4.67623 14.5633 4.69241 14.5633 4.46586 14.8223C4.36877 14.9355 4.35259 15.0326 4.53059 15.0812C5.04842 15.2268 5.58242 15.3724 6.10025 15.5019C6.24589 15.5343 6.29443 15.4857 6.26207 15.3401C6.11643 14.8222 5.98697 14.2883 5.84133 13.7704C5.79279 13.6248 5.71188 13.6086 5.5986 13.7057C5.51769 13.7704 5.45297 13.8352 5.33969 13.9323C5.30733 13.8837 5.30733 13.8513 5.29115 13.8351C5.25878 13.7866 5.22642 13.7381 5.19405 13.6895C4.75714 12.929 4.69241 12.1198 4.98369 11.2946C5.16169 10.7929 5.48533 10.7282 5.85752 11.1004L11.8772 17.1039L11.9258 17.1525L7.91263 21.2142C7.767 21.3598 7.6699 21.3922 7.45954 21.3113C6.18116 20.7449 4.74096 21.6996 4.77332 23.0751C4.7895 23.8518 5.25878 24.5477 5.97079 24.8228C6.69898 25.114 7.52427 24.9522 8.05827 24.402C8.60846 23.8518 8.78646 23.0265 8.46282 22.3145C8.36573 22.088 8.41428 21.9747 8.5761 21.8129L12.12 18.2852L12.2494 18.1558V24.1593C12.0229 24.2726 11.8772 24.4991 11.8772 24.7742C11.8772 25.1626 12.1847 25.47 12.5731 25.47C12.9614 25.47 13.2689 25.1626 13.2689 24.7742C13.2689 24.5315 13.1394 24.3049 12.9452 24.1917V18.1881L15.8256 21.0685C15.5344 21.3598 15.2431 21.6349 14.968 21.91C14.4664 22.444 14.434 22.2336 14.9842 22.8C15.0975 22.9133 15.1784 22.8971 15.2755 22.8C15.5505 22.5249 15.8418 22.2336 16.1169 21.9585C16.214 21.8614 16.3111 21.7643 16.4082 21.6834C16.8128 21.9747 16.8128 21.9909 16.6671 22.4116C16.3435 23.3178 16.7157 24.3211 17.5733 24.758C18.4148 25.2111 19.4666 24.9522 20.033 24.1917C20.5832 23.4149 20.4861 22.3469 19.8065 21.6834C19.2401 21.1494 18.4148 21.0038 17.6542 21.3436C17.5733 21.376 17.4601 21.3922 17.3953 21.3598C17.2659 21.2789 17.185 21.1494 17.0555 21.0362C17.1364 20.9552 17.185 20.8905 17.2497 20.842C17.5572 20.5345 17.8646 20.2109 18.1883 19.9034C18.3177 19.7901 18.3177 19.6931 18.1883 19.5798C18.0912 19.4989 17.9941 19.4018 17.9132 19.3047C17.7999 19.1752 17.719 19.1752 17.5895 19.3047C17.363 19.5474 17.1364 19.7578 16.9099 19.9843C16.7642 20.13 16.651 20.2918 16.5215 20.4536C15.4049 19.3209 14.3369 18.2528 13.2689 17.1687C13.2851 17.1525 13.3174 17.1201 13.3498 17.0716L13.366 17.0554C14.9033 15.5181 16.4406 13.9808 17.9941 12.4435C18.1397 12.2979 18.3339 12.1846 18.5281 12.1037C18.8517 11.9742 19.1592 12.217 19.1268 12.573C19.1106 12.8481 18.9326 13.0584 18.7384 13.2364C18.6575 13.1717 18.5766 13.1231 18.4633 13.0422C18.3339 13.5439 18.2044 14.0293 18.0588 14.5633C18.609 14.4177 19.0783 14.2882 19.5961 14.1588C19.5152 14.0455 19.4504 13.9646 19.3857 13.8837C19.7255 13.5277 19.9521 13.0908 20.0006 12.6053C20.4861 12.9289 20.5023 14.0941 19.9359 14.4501C19.8712 14.4015 19.7903 14.353 19.6932 14.2721C19.5637 14.7737 19.4343 15.2592 19.2886 15.7932C19.8388 15.6475 20.3081 15.5181 20.7936 15.3886C20.6479 15.0974 20.6479 15.0974 20.8421 14.8384C21.0848 14.3368 21.2467 13.819 21.1819 13.2526ZM13.2689 8.21998C13.366 8.25234 13.4792 8.26854 13.5925 8.26854H13.6087C13.5278 8.31709 13.4469 8.3818 13.4145 8.46271L13.2203 8.26854L13.2689 8.21998ZM6.63425 24.0622C6.0517 24.0622 5.61479 23.6091 5.61479 23.0265C5.61479 22.4602 6.06788 22.0071 6.63425 22.0071C7.21681 22.0071 7.6699 22.4602 7.6699 23.0265C7.6699 23.6091 7.21681 24.0622 6.63425 24.0622ZM12.6054 6.87687L12.5245 6.95778L12.2656 6.69887L12.5245 6.43996L12.7834 6.69887L12.6054 6.87687ZM18.431 22.0071C18.9974 22.0071 19.4504 22.4602 19.4504 23.0265C19.4504 23.6091 18.9974 24.0622 18.4148 24.0622C17.8322 24.0622 17.3791 23.5929 17.3791 23.0265C17.3953 22.4602 17.8484 22.0071 18.431 22.0071Z" fill="var(--fill-0, white)"/>
</g>
<path id="Vector_4" d="M33.1718 11.813C32.1847 10.8098 31.6992 9.54756 31.6992 8.01027C31.6992 6.47298 32.2009 5.21078 33.1718 4.22368C34.1589 3.22039 35.3725 2.71875 36.8451 2.71875C37.9617 2.71875 38.9326 2.97766 39.774 3.52785V4.25604C38.884 3.65731 37.9131 3.36603 36.8613 3.36603C35.5991 3.36603 34.5311 3.80295 33.6734 4.69296C32.8158 5.56679 32.3789 6.68335 32.3789 8.01027C32.3789 9.3372 32.7996 10.4538 33.6734 11.3438C34.5311 12.2176 35.5991 12.6545 36.8775 12.6545C38.0911 12.6545 39.1268 12.2985 40.0006 11.5865V12.3309C39.1591 12.9782 38.1073 13.3018 36.8451 13.3018C35.3725 13.3018 34.1427 12.8163 33.1718 11.813Z" fill="var(--fill-0, white)"/>
<path id="Vector_5" d="M41.7988 13.1235V2.89648H48.6438V3.52758H42.4785V7.31418H47.5758V7.94528H42.4785V12.5086H48.8866V13.1397H41.7988V13.1235Z" fill="var(--fill-0, white)"/>
<path id="Vector_6" d="M50.6328 13.1235V2.89648H54.9372C56.7334 2.89648 57.8015 3.83504 57.8015 5.37233C57.8015 6.50508 57.3322 7.23327 56.3774 7.57309C57.8338 7.79964 58.7238 8.83529 58.7238 10.3079C58.7238 12.0231 57.494 13.1397 55.4389 13.1397H50.6328V13.1235ZM51.3125 7.3789H54.8563C56.3127 7.3789 57.1542 6.68308 57.1542 5.45324C57.1542 4.22341 56.3127 3.52758 54.8563 3.52758H51.3125V7.3789ZM51.3125 12.5086H55.3256C57.0247 12.5086 57.9794 11.6833 57.9794 10.2431C57.9794 8.80292 57.0085 7.97764 55.3256 7.97764H51.3125V12.5086Z" fill="var(--fill-0, white)"/>
<path id="Vector_7" d="M60.6836 13.1235V2.89648H67.5286V3.52758H61.3632V7.31418H66.4606V7.94528H61.3632V12.5086H67.7713V13.1397H60.6836V13.1235Z" fill="var(--fill-0, white)"/>
<path id="Vector_8" d="M69.5332 13.1235V2.89648H73.7891C75.7795 2.89648 76.9446 3.99686 76.9446 5.64743C76.9446 7.29799 75.7795 8.41455 73.7891 8.41455H70.2128V13.1397H69.5332V13.1235ZM70.1967 7.78346H73.7243C75.3425 7.78346 76.2649 7.00672 76.2649 5.64743C76.2649 4.30432 75.3425 3.52758 73.7243 3.52758H70.1967V7.78346Z" fill="var(--fill-0, white)"/>
<path id="Vector_9" d="M79.7937 11.7969C78.8228 10.7936 78.3535 9.53138 78.3535 8.01027C78.3535 6.50534 78.839 5.24316 79.7937 4.23988C80.7808 3.23659 81.9945 2.71875 83.4347 2.71875C84.8749 2.71875 86.0885 3.23659 87.0594 4.23988C88.0465 5.24316 88.5158 6.50534 88.5158 8.01027C88.5158 9.5152 88.0304 10.7936 87.0594 11.7969C86.0723 12.8001 84.8749 13.3018 83.4347 13.3018C81.9783 13.3018 80.7646 12.8163 79.7937 11.7969ZM83.4347 12.6707C84.6807 12.6707 85.7163 12.2338 86.5578 11.3438C87.3993 10.4538 87.8362 9.3534 87.8362 8.02647C87.8362 6.69954 87.4154 5.59915 86.5578 4.70914C85.7163 3.81913 84.6645 3.38221 83.4347 3.38221C82.1886 3.38221 81.153 3.81913 80.3115 4.70914C79.4701 5.59915 79.0332 6.69954 79.0332 8.02647C79.0332 9.3534 79.4539 10.4538 80.3115 11.3438C81.153 12.2176 82.1886 12.6707 83.4347 12.6707Z" fill="var(--fill-0, white)"/>
<path id="Vector_10" d="M90.6523 9.49815V8.89941H94.6008V9.49815H90.6523Z" fill="var(--fill-0, white)"/>
<path id="Vector_11" d="M95.8633 12.5574V11.8616C96.8342 12.3956 97.9022 12.6707 99.0997 12.6707C101.22 12.6707 102.53 11.6836 102.53 10.211C102.53 9.5314 102.255 8.98121 101.689 8.52811C101.139 8.07502 100.394 7.84845 99.4395 7.84845H98.1773V7.21737H99.5042C101.074 7.21737 102.045 6.48916 102.045 5.25933C102.045 4.04568 100.912 3.36603 99.31 3.36603C98.3068 3.36603 97.3197 3.59258 96.3487 4.04568V3.38221C97.3358 2.9453 98.3391 2.71875 99.3424 2.71875C100.33 2.71875 101.122 2.9453 101.754 3.3984C102.385 3.85149 102.708 4.46641 102.708 5.25933C102.708 5.90661 102.514 6.40825 102.126 6.78044C101.754 7.15262 101.333 7.39535 100.88 7.50863C101.851 7.75136 103.226 8.56046 103.226 10.2434C103.226 11.1334 102.854 11.8778 102.142 12.4441C101.43 13.0105 100.443 13.3018 99.1968 13.3018C97.9346 13.3018 96.8018 13.0591 95.8633 12.5574Z" fill="var(--fill-0, white)"/>
<path id="Vector_12" d="M103.953 13.1228L108.597 2.83105H109.228L113.857 13.1228H113.161L111.801 10.113H106.041L104.681 13.1228H103.953ZM106.267 9.53041H111.542L108.905 3.70488L106.267 9.53041Z" fill="var(--fill-0, white)"/>
<path id="Vector_13" d="M115.41 13.1235V2.89648H123.226V13.1235H122.546V3.52758H116.074V13.1397H115.41V13.1235Z" fill="var(--fill-0, white)"/>
<path id="Vector_14" d="M124.795 13.1228L129.439 2.83105H130.07L134.698 13.1228H134.002L132.643 10.113H126.882L125.523 13.1228H124.795ZM127.093 9.53041H132.368L129.73 3.70488L127.093 9.53041Z" fill="var(--fill-0, white)"/>
<path id="Vector_15" d="M134.959 15.4865V12.509H135.914C136.594 11.5542 137.095 10.47 137.403 9.24019C137.71 8.01036 137.872 6.2627 137.872 3.98103V2.91302H143.859V12.5251H145.461V15.5026H144.814V13.1562H135.606V15.5026H134.959V15.4865ZM143.18 12.509V3.52794H138.552V4.20758C138.552 8.10745 138.034 10.6804 136.707 12.4928H143.18V12.509Z" fill="var(--fill-0, white)"/>
<path id="Vector_16" d="M147.029 13.1235V2.89648H147.709V7.31418H154.392V2.89648H155.072V13.1235H154.392V7.94528H147.709V13.1397H147.029V13.1235Z" fill="var(--fill-0, white)"/>
<path id="Vector_17" d="M157.662 13.1235V2.89648H158.342V6.92581H161.368C162.501 6.92581 163.358 7.21708 163.989 7.78345C164.62 8.34983 164.928 9.0942 164.928 10.0166C164.928 11.9099 163.617 13.1235 161.368 13.1235H157.662ZM158.342 12.5086H161.319C163.18 12.5086 164.248 11.6024 164.248 10.0166C164.248 8.44692 163.18 7.54072 161.319 7.54072H158.342V12.5086ZM166.611 13.1235V2.89648H167.29V13.1235H166.611Z" fill="var(--fill-0, white)"/>
<path id="Vector_18" d="M169.895 13.1236V2.89658H170.574V11.9909L177.484 2.89658H178.099V13.1236H177.419V4.01314L170.477 13.1398H169.895V13.1236ZM171.707 0H172.306C172.306 0.922375 172.969 1.53729 174.005 1.53729C174.992 1.53729 175.672 0.890011 175.672 0H176.27C176.254 1.24602 175.299 2.08748 174.005 2.08748C172.629 2.08748 171.723 1.27838 171.707 0Z" fill="var(--fill-0, white)"/>
<path id="Vector_19" d="M33.3671 28.3511V27.7038C33.6908 27.8332 34.0468 27.898 34.4028 27.898C35.3413 27.898 35.8915 27.2183 36.555 25.7296L36.6197 25.6001L32.4609 18.124H33.2377L36.9757 24.8719L40.0827 18.124H40.827L37.0566 26.215C36.2475 27.9303 35.5355 28.5452 34.5322 28.5452C34.0791 28.5291 33.707 28.4805 33.3671 28.3511Z" fill="var(--fill-0, white)"/>
<path id="Vector_20" d="M42.3652 28.3677V18.1406H43.0449V22.5583H49.7281V18.1406H50.4077V28.3677H49.7281V23.1732H43.0449V28.3677H42.3652Z" fill="var(--fill-0, white)"/>
<path id="Vector_21" d="M52.9961 28.3677V18.1406H53.6757V27.2349L60.5855 18.1406H61.2004V28.3677H60.5207V19.241L53.5786 28.3677H52.9961Z" fill="var(--fill-0, white)"/>
<path id="Vector_22" d="M63.8223 28.3677V18.1406H68.1267C69.9229 18.1406 70.9909 19.0792 70.9909 20.6165C70.9909 21.7492 70.5216 22.4774 69.5669 22.8172C71.0233 23.0438 71.9133 24.0794 71.9133 25.552C71.9133 27.2673 70.6834 28.3838 68.6283 28.3838H63.8223V28.3677ZM64.4857 22.6069H68.0296C69.486 22.6069 70.3274 21.911 70.3274 20.6812C70.3274 19.4514 69.486 18.7555 68.0296 18.7555H64.4857V22.6069ZM64.4857 27.7366H68.4989C70.198 27.7366 71.1527 26.9113 71.1527 25.4711C71.1527 24.0309 70.1818 23.2056 68.4989 23.2056H64.4857V27.7366Z" fill="var(--fill-0, white)"/>
<path id="Vector_23" d="M73.8711 28.3677V18.1406H80.7161V18.7717H74.5507V22.5583H79.6481V23.1894H74.5507V27.7527H80.9588V28.3838H73.8711V28.3677Z" fill="var(--fill-0, white)"/>
<path id="Vector_24" d="M82.707 28.3677V18.1406H86.9629C88.9533 18.1406 90.1184 19.241 90.1184 20.8916C90.1184 22.5421 88.9533 23.6587 86.9629 23.6587H83.3867V28.3838H82.707V28.3677ZM83.3867 23.0114H86.9144C88.5326 23.0114 89.4549 22.2347 89.4549 20.8754C89.4549 19.5323 88.5326 18.7555 86.9144 18.7555H83.3867V23.0114Z" fill="var(--fill-0, white)"/>
<path id="Vector_25" d="M92.998 27.0396C92.0109 26.0363 91.5254 24.7741 91.5254 23.2368C91.5254 21.6995 92.027 20.4373 92.998 19.4502C93.9851 18.447 95.1987 17.9453 96.6713 17.9453C97.7878 17.9453 98.7588 18.2042 99.6002 18.7544V19.4826C98.7102 18.8839 97.7393 18.5926 96.6875 18.5926C95.4253 18.5926 94.3572 19.0295 93.4996 19.9195C92.642 20.7933 92.2212 21.9099 92.2212 23.2368C92.2212 24.5638 92.642 25.6803 93.4996 26.5703C94.3572 27.4442 95.4253 27.8811 96.7036 27.8811C97.9173 27.8811 98.9529 27.5251 99.8268 26.8131V27.5574C98.9853 28.2047 97.9335 28.5284 96.6713 28.5284C95.1987 28.5284 93.9851 28.0429 92.998 27.0396Z" fill="var(--fill-0, white)"/>
<path id="Vector_26" d="M101.623 28.3677V18.1406H102.303V27.2349L109.212 18.1406H109.827V28.3677H109.148V19.241L102.206 28.3677H101.623Z" fill="var(--fill-0, white)"/>
<path id="Vector_27" d="M115.103 28.3672V18.7551H111.43V18.124H119.44V18.7551H115.766V28.3672H115.103Z" fill="var(--fill-0, white)"/>
<path id="Vector_28" d="M121.041 28.3677V18.1406H127.886V18.7717H121.721V22.5583H126.818V23.1894H121.721V27.7527H128.129V28.3838H121.041V28.3677Z" fill="var(--fill-0, white)"/>
<path id="Vector_29" d="M132.548 28.3672V18.7551H128.875V18.124H136.885V18.7551H133.212V28.3672H132.548Z" fill="var(--fill-0, white)"/>
</g>
<defs>
<clipPath id="clip0_1016_241">
<rect width="178.164" height="31.5549" fill="white"/>
</clipPath>
</defs>
</svg>
