<svg width="32" height="32" viewBox="0 0 32 32" fill="none" xmlns="http://www.w3.org/2000/svg">
  <path d="M20.5424 20.5424L17.0654 30.1051C16.9843 30.3238 16.8381 30.5124 16.6466 30.6456C16.4552 30.7788 16.2276 30.85 15.9943 30.85C15.761 30.85 15.5334 30.7788 15.342 30.6456C15.1506 30.5124 15.0043 30.3238 14.9232 30.1051L11.452 20.5424L1.8892 17.0654C1.67047 16.9843 1.48188 16.8381 1.34868 16.6466C1.21548 16.4552 1.14429 16.2276 1.14429 15.9943C1.14429 15.761 1.21548 15.5334 1.34868 15.342C1.48188 15.1506 1.67047 15.0043 1.8892 14.9232L11.452 11.452L14.9232 1.8892C15.0043 1.67047 15.1506 1.48188 15.342 1.34868C15.5334 1.21548 15.761 1.14429 15.9943 1.14429C16.2276 1.14429 16.4552 1.21548 16.6466 1.34868C16.8381 1.48188 16.9843 1.67047 17.0654 1.8892L20.5424 11.452L30.1051 14.9232C30.3238 15.0043 30.5124 15.1506 30.6456 15.342C30.7788 15.5334 30.85 15.761 30.85 15.9943C30.85 16.2276 30.7788 16.4552 30.6456 16.6466C30.5124 16.8381 30.3238 16.9843 30.1051 17.0654L20.5424 20.5424Z" stroke="currentColor" stroke-width="2" stroke-linecap="round" stroke-linejoin="round"/>
</svg>
