<svg preserveAspectRatio="none" width="100%" height="100%" overflow="visible" style="display: block;" viewBox="0 0 30.9957 25.9999" fill="none" xmlns="http://www.w3.org/2000/svg">
<path id="Vector" d="M30.621 8.5125L23.621 0.5125C23.4807 0.352041 23.3078 0.223337 23.1138 0.134965C22.9198 0.0465924 22.7092 0.000581905 22.496 0H8.49604C8.28287 0.000581905 8.07227 0.0465924 7.87828 0.134965C7.6843 0.223337 7.51137 0.352041 7.37104 0.5125L0.371037 8.5125C0.126341 8.79221 -0.00580851 9.15279 0.000195991 9.52438C0.00620049 9.89597 0.149932 10.2521 0.403537 10.5238L14.4035 25.5238C14.5439 25.674 14.7136 25.7938 14.9022 25.8757C15.0908 25.9576 15.2942 25.9999 15.4998 25.9999C15.7054 25.9999 15.9088 25.9576 16.0974 25.8757C16.286 25.7938 16.4557 25.674 16.596 25.5238L30.596 10.5238C30.8486 10.2512 30.991 9.89452 30.9956 9.52294C31.0002 9.15135 30.8667 8.79129 30.621 8.5125ZM26.1898 8H22.246L18.496 3H21.8148L26.1898 8ZM8.48104 11L11.1298 17.625L4.94729 11H8.48104ZM19.281 11L15.496 20.4613L11.711 11H19.281ZM12.496 8L15.496 4L18.496 8H12.496ZM22.511 11H26.0448L19.8623 17.625L22.511 11ZM9.17729 3H12.496L8.74604 8H4.80229L9.17729 3Z" fill="var(--fill-0, white)"/>
</svg>
