<svg preserveAspectRatio="none" width="100%" height="100%" overflow="visible" style="display: block;" viewBox="0 0 21.5 25.5" fill="none" xmlns="http://www.w3.org/2000/svg">
<path id="Vector" d="M21.28 5.22L16.28 0.22C16.1395 0.0793075 15.9488 0.000175052 15.75 0H5.75C5.28587 0 4.84075 0.184375 4.51256 0.512563C4.18437 0.840752 4 1.28587 4 1.75V4H1.75C1.28587 4 0.840752 4.18437 0.512563 4.51256C0.184375 4.84075 0 5.28587 0 5.75V23.75C0 24.2141 0.184375 24.6592 0.512563 24.9874C0.840752 25.3156 1.28587 25.5 1.75 25.5H15.75C16.2141 25.5 16.6592 25.3156 16.9874 24.9874C17.3156 24.6592 17.5 24.2141 17.5 23.75V21.5H19.75C20.2141 21.5 20.6592 21.3156 20.9874 20.9874C21.3156 20.6592 21.5 20.2141 21.5 19.75V5.75C21.4998 5.55115 21.4207 5.36052 21.28 5.22ZM16 23.75C16 23.8163 15.9737 23.8799 15.9268 23.9268C15.8799 23.9737 15.8163 24 15.75 24H1.75C1.6837 24 1.62011 23.9737 1.57322 23.9268C1.52634 23.8799 1.5 23.8163 1.5 23.75V5.75C1.5 5.6837 1.52634 5.62011 1.57322 5.57322C1.62011 5.52634 1.6837 5.5 1.75 5.5H11.4387L16 10.0612V23.75ZM20 19.75C20 19.8163 19.9737 19.8799 19.9268 19.9268C19.8799 19.9737 19.8163 20 19.75 20H17.5V9.75C17.4998 9.55115 17.4207 9.36052 17.28 9.22L12.28 4.22C12.1395 4.07931 11.9488 4.00018 11.75 4H5.5V1.75C5.5 1.6837 5.52634 1.62011 5.57322 1.57322C5.62011 1.52634 5.6837 1.5 5.75 1.5H15.4387L20 6.06125V19.75ZM12.5 15.75C12.5 15.9489 12.421 16.1397 12.2803 16.2803C12.1397 16.421 11.9489 16.5 11.75 16.5H5.75C5.55109 16.5 5.36032 16.421 5.21967 16.2803C5.07902 16.1397 5 15.9489 5 15.75C5 15.5511 5.07902 15.3603 5.21967 15.2197C5.36032 15.079 5.55109 15 5.75 15H11.75C11.9489 15 12.1397 15.079 12.2803 15.2197C12.421 15.3603 12.5 15.5511 12.5 15.75ZM12.5 19.75C12.5 19.9489 12.421 20.1397 12.2803 20.2803C12.1397 20.421 11.9489 20.5 11.75 20.5H5.75C5.55109 20.5 5.36032 20.421 5.21967 20.2803C5.07902 20.1397 5 19.9489 5 19.75C5 19.5511 5.07902 19.3603 5.21967 19.2197C5.36032 19.079 5.55109 19 5.75 19H11.75C11.9489 19 12.1397 19.079 12.2803 19.2197C12.421 19.3603 12.5 19.5511 12.5 19.75Z" fill="var(--fill-0, white)"/>
</svg>
