<svg preserveAspectRatio="none" width="100%" height="100%" overflow="visible" style="display: block;" viewBox="0 0 350.062 62" fill="none" xmlns="http://www.w3.org/2000/svg">
<g id="SPBRSI_logo 1">
<g id="Group 7">
<path id="Vector" d="M0 3.87683V53.3814C0 56.1476 2.25744 58.405 5.02359 58.405H20.1262C21.5887 58.6276 22.9241 59.4861 23.7508 60.7261L24.5456 61.9343L25.3405 60.7261C26.1672 59.4861 27.4708 58.6276 28.9333 58.405H43.6861C46.4523 58.405 48.7097 56.1476 48.7097 53.3814V3.87683H0ZM43.7179 56.4655H28.9015H28.7744C27.1846 56.7199 25.6903 57.483 24.5774 58.6594C23.4646 57.5148 21.9385 56.7199 20.3487 56.4655H5.02359C3.30667 56.4655 1.93949 55.0984 1.93949 53.3814V5.81628H46.802V53.3814C46.802 55.0984 45.4349 56.4655 43.7179 56.4655Z" fill="var(--fill-0, white)"/>
<path id="Vector_2" d="M23.242 33.5718C23.2738 33.6036 23.3056 33.6354 23.3374 33.6672L23.242 33.5718ZM16.7241 42.8241C19.0133 40.5667 21.3025 38.2775 23.5917 35.9882C23.6235 35.9564 23.6553 35.9247 23.6871 35.8929L16.7241 42.8241Z" fill="var(--fill-0, white)"/>
<path id="Vector_3" d="M41.6188 26.0361C41.3644 23.6197 39.6475 22.0618 37.2311 21.9346C36.5634 21.9028 36.4998 21.8074 36.468 21.1715C36.3727 19.3592 35.546 17.9603 33.8609 17.1972C32.2075 16.4341 30.6177 16.6566 29.1552 17.7695C29.028 17.8649 28.9008 17.9602 28.7736 18.0556C28.6146 17.9284 28.4557 17.8331 28.2331 17.6741C27.9787 18.6915 27.7244 19.6136 27.4382 20.6628C28.5193 20.3766 29.4413 20.1223 30.427 19.8679C30.268 19.6454 30.1726 19.4864 30.0454 19.3592C30.9675 18.1828 33.1932 18.4054 33.7019 19.2639C32.7162 19.3592 31.8896 19.8043 31.19 20.472C30.9993 20.3449 30.8721 20.2177 30.6495 20.0587C30.3952 21.0444 30.1408 21.9664 29.8864 22.9203C29.9182 22.9521 29.95 22.9838 29.9818 23.0474C30.9039 22.7931 31.8578 22.5387 32.8434 22.2844C32.6845 22.0618 32.5573 21.9028 32.3983 21.712C32.7162 21.4895 33.0024 21.2669 33.3204 21.1079C33.7655 20.8854 34.2106 20.949 34.4968 21.2669C34.7829 21.5531 34.8465 21.9982 34.5603 22.4433L25.308 31.791V18.2146L25.9121 17.6105L25.2444 16.9428L25.5623 16.6249L26.2936 17.3562C26.4208 17.6105 26.707 17.7695 26.9931 17.7695C27.4382 17.7695 27.788 17.4197 27.788 16.9746C27.788 16.5931 27.5018 16.2433 27.1521 16.1797C28.1695 15.9254 28.9008 15.0351 28.9008 13.9541C28.9008 13.35 28.6464 12.7777 28.2649 12.3643L26.6752 13.9541H26.0075L25.4034 14.5582L25.149 14.3038L25.9439 13.509H26.2618C26.389 13.509 26.389 13.6361 26.389 13.6361H26.5162V13.191L26.23 12.9049C26.4208 12.8413 26.4208 12.4915 26.2936 12.3961C26.1664 12.3007 26.0075 12.2372 26.0075 12.2372C26.0075 12.2372 25.9439 12.2372 25.8167 12.2372V11.9828H25.6259V12.2372H25.4987C25.3398 12.2372 25.2444 12.3008 25.2444 12.3008C24.9264 12.428 25.0536 12.6823 25.0854 12.7777L24.8629 12.5551L25.0218 12.428C25.2126 12.3644 25.2126 12.0146 25.0854 11.9192C24.9582 11.8238 24.7993 11.7602 24.7993 11.7602C24.7993 11.7602 24.7357 11.7602 24.6085 11.7602V11.5059H24.4177V11.7602H24.2905C24.1316 11.7602 24.0362 11.8239 24.0362 11.8239C23.6546 11.9828 23.8772 12.3325 23.8772 12.3325L24.1316 12.5869C24.1316 12.5869 24.0362 12.6823 23.909 12.7777C23.9408 12.6505 23.9408 12.4915 23.8454 12.428C23.7182 12.3326 23.5593 12.269 23.5593 12.269C23.5593 12.269 23.4957 12.269 23.3685 12.269V12.0146H23.1777V12.269H23.0505C22.8916 12.269 22.7962 12.3325 22.7962 12.3325C22.4146 12.4915 22.6372 12.8413 22.6372 12.8413L22.7962 13.0002L22.5418 13.2546V13.6998H22.669C22.669 13.6998 22.669 13.5726 22.7962 13.5726H23.0505L23.8136 14.3357L23.5593 14.6218L22.9552 14.0177H22.2875L20.6977 12.428C20.3162 12.8413 20.0618 13.4136 20.0618 14.0177C20.0618 15.2895 21.0793 16.3069 22.3511 16.3069C22.5736 16.3069 22.7644 16.2751 22.987 16.2115L23.1141 16.3387L22.4146 17.0382L22.3829 17.07C22.2875 17.07 22.1285 17.07 21.9695 17.1336L21.2064 16.3705C21.2064 16.3387 21.2382 16.3069 21.2382 16.2751C21.2382 16.1162 21.1111 15.989 20.9521 15.989C20.7931 15.989 20.6659 16.1162 20.6659 16.2751C20.6659 16.4341 20.7931 16.5613 20.9521 16.5613C20.9839 16.5613 21.0157 16.5613 21.0475 16.5613L21.8105 17.3243C21.747 17.4833 21.8105 17.6741 22.0013 17.8649C22.1921 18.0239 22.3511 18.0239 22.4782 17.9921L22.669 18.1828L22.8598 17.9921L22.7008 17.8331C22.7326 17.7377 22.7644 17.5787 22.7326 17.4515L23.4957 16.6884L23.8136 17.0064L23.1459 17.6741L23.8136 18.3418V31.8228L12.6536 20.5357C11.9223 19.8044 12.0495 19.1685 13.0352 18.8187C14.6885 18.2464 16.2782 18.4054 17.7726 19.2639C17.8998 19.3592 18.0587 19.4546 18.2177 19.5818C18.0905 19.7408 17.9952 19.8362 17.8998 19.9315C17.55 20.3131 17.5818 20.4085 18.0587 20.5357C19.0444 20.79 19.9982 21.0444 20.9839 21.3305C21.1111 21.3623 21.2064 21.3623 21.429 21.3941C21.0793 20.1541 20.7931 19.0095 20.4752 17.8649C20.4116 17.6423 20.2526 17.6423 20.0936 17.7695C19.9029 17.9284 19.7121 18.1192 19.5531 18.2782C19.4895 18.2464 19.4577 18.2464 19.4259 18.2464C19.2987 18.151 19.1716 18.0557 19.0444 17.9921C16.5326 16.4341 13.9572 16.3387 11.35 17.7377C10.7777 18.0556 10.269 18.2782 9.60131 18.2146C9.21978 18.1828 9.0608 18.3418 9.12439 18.7233C9.18798 19.3592 8.99721 19.868 8.67926 20.4085C7.24849 22.9521 7.34388 25.4957 8.83824 28.0074C9.18798 28.6115 9.21977 28.6115 8.77465 29.1203C8.58388 29.3428 8.55208 29.5336 8.90183 29.629C9.91926 29.9151 10.9685 30.2013 11.9859 30.4556C12.2721 30.5192 12.3675 30.4238 12.3039 30.1377C12.0177 29.1202 11.7634 28.071 11.4772 27.0536C11.3818 26.7674 11.2229 26.7357 11.0003 26.9264C10.8413 27.0536 10.7141 27.1808 10.4916 27.3715C10.428 27.2762 10.428 27.2125 10.3962 27.1807C10.3326 27.0854 10.269 26.99 10.2054 26.8946C9.34695 25.4003 9.21978 23.8105 9.79208 22.189C10.1418 21.2033 10.7777 21.0762 11.509 21.8074L23.3367 33.6033L23.4321 33.6987L15.547 41.6792C15.2608 41.9654 15.07 42.029 14.6567 41.87C12.1449 40.7572 9.31516 42.6331 9.37875 45.3357C9.41054 46.8618 10.3326 48.229 11.7316 48.7695C13.1623 49.3418 14.7839 49.0239 15.8331 47.9428C16.9141 46.8618 17.2639 45.2403 16.628 43.8413C16.4372 43.3962 16.5326 43.1736 16.8505 42.8557L23.8136 35.9244L24.068 35.67V47.4659C23.6229 47.6885 23.3367 48.1336 23.3367 48.6741C23.3367 49.4372 23.9408 50.0413 24.7039 50.0413C25.467 50.0413 26.0711 49.4372 26.0711 48.6741C26.0711 48.1972 25.8167 47.7521 25.4352 47.5295V35.7336L31.0946 41.3931C30.5223 41.9654 29.95 42.5059 29.4095 43.0464C28.4239 44.0956 28.3603 43.6823 29.4413 44.7951C29.6639 45.0177 29.8229 44.9859 30.0136 44.7951C30.5541 44.2546 31.1264 43.6823 31.667 43.1418C31.8578 42.951 32.0486 42.7603 32.2393 42.6013C33.0342 43.1736 33.0342 43.2054 32.748 44.0321C32.1121 45.8126 32.8434 47.7839 34.5286 48.6423C36.1819 49.5326 38.2486 49.0239 39.3614 47.5295C40.4424 46.0033 40.2516 43.9049 38.9162 42.6013C37.8034 41.5521 36.1819 41.2659 34.6875 41.9336C34.5286 41.9972 34.306 42.029 34.1788 41.9654C33.9245 41.8064 33.7655 41.5521 33.5111 41.3295C33.6701 41.1705 33.7655 41.0433 33.8927 40.948C34.4968 40.3439 35.1009 39.708 35.7368 39.1039C35.9911 38.8813 35.9911 38.6905 35.7368 38.468C35.546 38.309 35.3552 38.1182 35.1962 37.9274C34.9737 37.6731 34.8147 37.6731 34.5603 37.9274C34.1152 38.4044 33.6701 38.8177 33.225 39.2628C32.9388 39.549 32.7162 39.8669 32.4619 40.1849C30.268 37.9592 28.1695 35.8608 26.0711 33.7305C26.1029 33.6987 26.1664 33.6351 26.23 33.5398L26.2618 33.508C29.2823 30.4874 32.3029 27.4669 35.3552 24.4464C35.6414 24.1602 36.0229 23.9377 36.4045 23.7787C37.0403 23.5243 37.6445 24.0013 37.5809 24.7008C37.5491 25.2413 37.1993 25.6546 36.8178 26.0043C36.6588 25.8772 36.4998 25.7818 36.2773 25.6228C36.0229 26.6085 35.7686 27.5623 35.4824 28.6115C36.5634 28.3254 37.4855 28.071 38.5029 27.8166C38.3439 27.5941 38.2168 27.4351 38.0896 27.2761C38.7573 26.5766 39.2024 25.7182 39.2978 24.7643C40.2516 25.4002 40.2834 27.6895 39.1706 28.389C39.0434 28.2936 38.8845 28.1982 38.6937 28.0392C38.4393 29.0249 38.185 29.9787 37.8988 31.028C38.9798 30.7418 39.9019 30.4874 40.8557 30.2331C40.5696 29.6608 40.5696 29.6608 40.9511 29.1521C41.428 28.1664 41.746 27.149 41.6188 26.0361ZM26.0711 16.1479C26.2618 16.2115 26.4844 16.2433 26.707 16.2433H26.7387C26.5798 16.3387 26.4208 16.4659 26.3572 16.6249L25.9757 16.2433L26.0711 16.1479ZM13.0352 47.2751C11.8905 47.2751 11.0321 46.3849 11.0321 45.2403C11.0321 44.1274 11.9223 43.2372 13.0352 43.2372C14.1798 43.2372 15.07 44.1274 15.07 45.2403C15.07 46.3849 14.1798 47.2751 13.0352 47.2751ZM24.7675 13.509L24.6085 13.6679L24.0998 13.1592L24.6085 12.6505L25.1172 13.1592L24.7675 13.509ZM36.2137 43.2372C37.3265 43.2372 38.2168 44.1274 38.2168 45.2403C38.2168 46.3849 37.3265 47.2751 36.1819 47.2751C35.0373 47.2751 34.147 46.3531 34.147 45.2403C34.1788 44.1274 35.0691 43.2372 36.2137 43.2372Z" fill="var(--fill-0, white)"/>
</g>
<path id="Vector_4" d="M65.1768 23.2106C63.2373 21.2393 62.2835 18.7593 62.2835 15.7388C62.2835 12.7183 63.2691 10.2383 65.1768 8.2988C67.1163 6.32751 69.5009 5.34187 72.3942 5.34187C74.5881 5.34187 76.4958 5.85059 78.1491 6.93162V8.36239C76.4004 7.18598 74.4927 6.61367 72.426 6.61367C69.946 6.61367 67.8476 7.47213 66.1625 9.22085C64.4773 10.9378 63.6189 13.1316 63.6189 15.7388C63.6189 18.346 64.4455 20.5399 66.1625 22.2886C67.8476 24.0055 69.946 24.864 72.4578 24.864C74.8424 24.864 76.8773 24.1645 78.5942 22.7655V24.2281C76.9409 25.4999 74.8742 26.1357 72.3942 26.1357C69.5009 26.1357 67.0845 25.1819 65.1768 23.2106Z" fill="var(--fill-0, white)"/>
<path id="Vector_5" d="M82.1275 25.7854V5.69109H95.5767V6.93109H83.4628V14.3711H93.4782V15.6111H83.4628V24.5772H96.0536V25.8172H82.1275V25.7854Z" fill="var(--fill-0, white)"/>
<path id="Vector_6" d="M99.4847 25.7854V5.69109H107.942C111.471 5.69109 113.57 7.53519 113.57 10.5557C113.57 12.7813 112.648 14.2121 110.772 14.8798C113.633 15.3249 115.382 17.3598 115.382 20.2531C115.382 23.6234 112.966 25.8172 108.928 25.8172H99.4847V25.7854ZM100.82 14.4983H107.783C110.645 14.4983 112.298 13.1311 112.298 10.7147C112.298 8.29827 110.645 6.93109 107.783 6.93109H100.82V14.4983ZM100.82 24.5772H108.705C112.044 24.5772 113.92 22.9557 113.92 20.126C113.92 17.2962 112.012 15.6747 108.705 15.6747H100.82V24.5772Z" fill="var(--fill-0, white)"/>
<path id="Vector_7" d="M119.233 25.7854V5.69109H132.682V6.93109H120.568V14.3711H130.584V15.6111H120.568V24.5772H133.159V25.8172H119.233V25.7854Z" fill="var(--fill-0, white)"/>
<path id="Vector_8" d="M136.621 25.7854V5.69109H144.983C148.894 5.69109 151.183 7.85314 151.183 11.0962C151.183 14.3393 148.894 16.5331 144.983 16.5331H137.956V25.8172H136.621V25.7854ZM137.924 15.2931H144.856C148.035 15.2931 149.847 13.767 149.847 11.0962C149.847 8.45724 148.035 6.93109 144.856 6.93109H137.924V15.2931Z" fill="var(--fill-0, white)"/>
<path id="Vector_9" d="M156.781 23.1788C154.873 21.2075 153.951 18.7275 153.951 15.7388C153.951 12.7819 154.905 10.3019 156.781 8.33062C158.72 6.35934 161.105 5.34187 163.935 5.34187C166.764 5.34187 169.149 6.35934 171.057 8.33062C172.996 10.3019 173.918 12.7819 173.918 15.7388C173.918 18.6957 172.964 21.2075 171.057 23.1788C169.117 25.1501 166.764 26.1357 163.935 26.1357C161.073 26.1357 158.689 25.1819 156.781 23.1788ZM163.935 24.8957C166.383 24.8957 168.418 24.0373 170.071 22.2886C171.724 20.5399 172.583 18.3778 172.583 15.7706C172.583 13.1634 171.756 11.0014 170.071 9.25264C168.418 7.50392 166.351 6.64546 163.935 6.64546C161.486 6.64546 159.452 7.50392 157.798 9.25264C156.145 11.0014 155.286 13.1634 155.286 15.7706C155.286 18.3778 156.113 20.5399 157.798 22.2886C159.452 24.0055 161.486 24.8957 163.935 24.8957Z" fill="var(--fill-0, white)"/>
<path id="Vector_10" d="M178.116 18.6603V17.4839H185.874V18.6603H178.116Z" fill="var(--fill-0, white)"/>
<path id="Vector_11" d="M188.355 24.6732V23.306C190.262 24.3552 192.361 24.8957 194.714 24.8957C198.879 24.8957 201.454 22.9563 201.454 20.0629C201.454 18.7275 200.914 17.6465 199.801 16.7563C198.72 15.866 197.257 15.4208 195.381 15.4208H192.901V14.1809H195.509C198.593 14.1809 200.5 12.7501 200.5 10.3337C200.5 7.94905 198.275 6.61367 195.127 6.61367C193.156 6.61367 191.216 7.0588 189.309 7.94905V6.64546C191.248 5.787 193.219 5.34187 195.191 5.34187C197.13 5.34187 198.688 5.787 199.928 6.67726C201.168 7.56751 201.804 8.77572 201.804 10.3337C201.804 11.6055 201.422 12.5911 200.659 13.3224C199.928 14.0537 199.101 14.5306 198.211 14.7532C200.119 15.2301 202.821 16.8198 202.821 20.1265C202.821 21.8752 202.09 23.3378 200.691 24.4506C199.292 25.5634 197.353 26.1357 194.904 26.1357C192.424 26.1357 190.199 25.6588 188.355 24.6732Z" fill="var(--fill-0, white)"/>
<path id="Vector_12" d="M204.25 25.786L213.375 5.56445H214.615L223.708 25.786H222.341L219.67 19.8721H208.351L205.681 25.786H204.25ZM208.797 18.7275H219.162L213.979 7.28137L208.797 18.7275Z" fill="var(--fill-0, white)"/>
<path id="Vector_13" d="M226.761 25.7854V5.69109H242.118V25.7854H240.783V6.93109H228.065V25.8172H226.761V25.7854Z" fill="var(--fill-0, white)"/>
<path id="Vector_14" d="M245.2 25.786L254.326 5.56445H255.566L264.659 25.786H263.292L260.621 19.8721H249.302L246.631 25.786H245.2ZM249.715 18.7275H260.08L254.898 7.28137L249.715 18.7275Z" fill="var(--fill-0, white)"/>
<path id="Vector_15" d="M265.171 30.4264V24.5761H267.047C268.382 22.7003 269.368 20.57 269.972 18.1536C270.576 15.7372 270.894 12.3033 270.894 7.82025V5.72179H282.658V24.6079H285.806V30.4582H284.534V25.8479H266.443V30.4582H265.171V30.4264ZM281.323 24.5761V6.93H272.229V8.26538C272.229 15.9279 271.212 20.9833 268.605 24.5444H281.323V24.5761Z" fill="var(--fill-0, white)"/>
<path id="Vector_16" d="M288.887 25.7854V5.69109H290.223V14.3711H303.354V5.69109H304.689V25.7854H303.354V15.6111H290.223V25.8172H288.887V25.7854Z" fill="var(--fill-0, white)"/>
<path id="Vector_17" d="M309.779 25.7854V5.69109H311.114V13.608H317.06C319.285 13.608 320.971 14.1803 322.211 15.2931C323.451 16.406 324.055 17.8685 324.055 19.6808C324.055 23.4008 321.479 25.7854 317.06 25.7854H309.779ZM311.114 24.5772H316.964C320.621 24.5772 322.719 22.7967 322.719 19.6808C322.719 16.5967 320.621 14.8162 316.964 14.8162H311.114V24.5772ZM327.361 25.7854V5.69109H328.697V25.7854H327.361Z" fill="var(--fill-0, white)"/>
<path id="Vector_18" d="M333.813 25.7856V5.69128H335.149V23.56L348.725 5.69128H349.933V25.7856H348.598V7.88513L334.958 25.8174H333.813V25.7856ZM337.374 0H338.551C338.551 1.81231 339.854 3.02051 341.889 3.02051C343.829 3.02051 345.164 1.74872 345.164 0H346.341C346.309 2.4482 344.433 4.10154 341.889 4.10154C339.187 4.10154 337.406 2.51179 337.374 0Z" fill="var(--fill-0, white)"/>
<path id="Vector_19" d="M65.5606 55.7068V54.435C66.1965 54.6894 66.896 54.8166 67.5955 54.8166C69.4396 54.8166 70.5206 53.4812 71.8242 50.5561L71.9514 50.3017L63.7801 35.6125H65.3063L72.6509 48.8709L78.7555 35.6125H80.2181L72.8099 51.5099C71.2201 54.8802 69.8211 56.0884 67.8499 56.0884C66.9596 56.0566 66.2283 55.9612 65.5606 55.7068Z" fill="var(--fill-0, white)"/>
<path id="Vector_20" d="M83.2403 55.7375V35.6432H84.5757V44.3232H97.707V35.6432H99.0424V55.7375H97.707V45.5314H84.5757V55.7375H83.2403Z" fill="var(--fill-0, white)"/>
<path id="Vector_21" d="M104.128 55.7375V35.6432H105.464V53.5119L119.04 35.6432H120.248V55.7375H118.913V37.8052L105.273 55.7375H104.128Z" fill="var(--fill-0, white)"/>
<path id="Vector_22" d="M125.4 55.7375V35.6432H133.857C137.386 35.6432 139.485 37.4873 139.485 40.5078C139.485 42.7334 138.563 44.1642 136.687 44.8319C139.548 45.277 141.297 47.3119 141.297 50.2052C141.297 53.5755 138.881 55.7693 134.843 55.7693H125.4V55.7375ZM126.703 44.4186H133.666C136.528 44.4186 138.181 43.0514 138.181 40.635C138.181 38.2186 136.528 36.8514 133.666 36.8514H126.703V44.4186ZM126.703 54.4975H134.588C137.927 54.4975 139.803 52.876 139.803 50.0463C139.803 47.2165 137.895 45.595 134.588 45.595H126.703V54.4975Z" fill="var(--fill-0, white)"/>
<path id="Vector_23" d="M145.144 55.7375V35.6432H158.593V36.8832H146.479V44.3232H156.495V45.5632H146.479V54.5293H159.07V55.7693H145.144V55.7375Z" fill="var(--fill-0, white)"/>
<path id="Vector_24" d="M162.505 55.7375V35.6432H170.867C174.778 35.6432 177.067 37.8052 177.067 41.0483C177.067 44.2914 174.778 46.4852 170.867 46.4852H163.84V55.7693H162.505V55.7375ZM163.84 45.2134H170.772C173.951 45.2134 175.763 43.6873 175.763 41.0165C175.763 38.3775 173.951 36.8514 170.772 36.8514H163.84V45.2134Z" fill="var(--fill-0, white)"/>
<path id="Vector_25" d="M182.725 53.1281C180.785 51.1569 179.832 48.6769 179.832 45.6564C179.832 42.6358 180.817 40.1558 182.725 38.2164C184.664 36.2451 187.049 35.2594 189.942 35.2594C192.136 35.2594 194.044 35.7681 195.697 36.8492V38.2799C193.948 37.1035 192.041 36.5312 189.974 36.5312C187.494 36.5312 185.396 37.3897 183.711 39.1384C182.025 40.8553 181.199 43.0492 181.199 45.6564C181.199 48.2635 182.025 50.4574 183.711 52.2061C185.396 53.923 187.494 54.7815 190.006 54.7815C192.391 54.7815 194.425 54.082 196.142 52.683V54.1456C194.489 55.4174 192.422 56.0533 189.942 56.0533C187.049 56.0533 184.664 55.0994 182.725 53.1281Z" fill="var(--fill-0, white)"/>
<path id="Vector_26" d="M199.672 55.7375V35.6432H201.007V53.5119L214.583 35.6432H215.792V55.7375H214.456V37.8052L200.816 55.7375H199.672Z" fill="var(--fill-0, white)"/>
<path id="Vector_27" d="M226.157 55.7386V36.8525H218.94V35.6125H234.678V36.8525H227.461V55.7386H226.157Z" fill="var(--fill-0, white)"/>
<path id="Vector_28" d="M237.825 55.7375V35.6432H251.274V36.8832H239.16V44.3232H249.175V45.5632H239.16V54.5293H251.751V55.7693H237.825V55.7375Z" fill="var(--fill-0, white)"/>
<path id="Vector_29" d="M260.434 55.7386V36.8525H253.217V35.6125H268.956V36.8525H261.738V55.7386H260.434Z" fill="var(--fill-0, white)"/>
</g>
</svg>
