<svg preserveAspectRatio="none" width="100%" height="100%" overflow="visible" style="display: block;" viewBox="0 0 21 25" fill="none" xmlns="http://www.w3.org/2000/svg">
<path id="Vector" d="M20.8538 5.14625L15.8538 0.14625C15.8073 0.099833 15.7521 0.0630259 15.6914 0.0379318C15.6307 0.0128378 15.5657 -5.14929e-05 15.5 1.54601e-07H5.5C5.10218 1.54601e-07 4.72064 0.158035 4.43934 0.43934C4.15804 0.720645 4 1.10218 4 1.5V4H1.5C1.10218 4 0.720644 4.15804 0.43934 4.43934C0.158035 4.72064 0 5.10218 0 5.5V23.5C0 23.8978 0.158035 24.2794 0.43934 24.5607C0.720644 24.842 1.10218 25 1.5 25H15.5C15.8978 25 16.2794 24.842 16.5607 24.5607C16.842 24.2794 17 23.8978 17 23.5V21H19.5C19.8978 21 20.2794 20.842 20.5607 20.5607C20.842 20.2794 21 19.8978 21 19.5V5.5C21.0001 5.43432 20.9872 5.36927 20.9621 5.30857C20.937 5.24788 20.9002 5.19272 20.8538 5.14625ZM16 23.5C16 23.6326 15.9473 23.7598 15.8536 23.8536C15.7598 23.9473 15.6326 24 15.5 24H1.5C1.36739 24 1.24021 23.9473 1.14645 23.8536C1.05268 23.7598 1 23.6326 1 23.5V5.5C1 5.36739 1.05268 5.24021 1.14645 5.14645C1.24021 5.05268 1.36739 5 1.5 5H11.2925L16 9.7075V23.5ZM20 19.5C20 19.6326 19.9473 19.7598 19.8536 19.8536C19.7598 19.9473 19.6326 20 19.5 20H17V9.5C17.0001 9.43432 16.9872 9.36927 16.9621 9.30857C16.937 9.24788 16.9002 9.19272 16.8538 9.14625L11.8538 4.14625C11.8073 4.09983 11.7521 4.06303 11.6914 4.03793C11.6307 4.01284 11.5657 3.99995 11.5 4H5V1.5C5 1.36739 5.05268 1.24022 5.14645 1.14645C5.24021 1.05268 5.36739 1 5.5 1H15.2925L20 5.7075V19.5ZM12 15.5C12 15.6326 11.9473 15.7598 11.8536 15.8536C11.7598 15.9473 11.6326 16 11.5 16H5.5C5.36739 16 5.24021 15.9473 5.14645 15.8536C5.05268 15.7598 5 15.6326 5 15.5C5 15.3674 5.05268 15.2402 5.14645 15.1464C5.24021 15.0527 5.36739 15 5.5 15H11.5C11.6326 15 11.7598 15.0527 11.8536 15.1464C11.9473 15.2402 12 15.3674 12 15.5ZM12 19.5C12 19.6326 11.9473 19.7598 11.8536 19.8536C11.7598 19.9473 11.6326 20 11.5 20H5.5C5.36739 20 5.24021 19.9473 5.14645 19.8536C5.05268 19.7598 5 19.6326 5 19.5C5 19.3674 5.05268 19.2402 5.14645 19.1464C5.24021 19.0527 5.36739 19 5.5 19H11.5C11.6326 19 11.7598 19.0527 11.8536 19.1464C11.9473 19.2402 12 19.3674 12 19.5Z" fill="var(--fill-0, white)"/>
</svg>
