<svg preserveAspectRatio="none" width="100%" height="100%" overflow="visible" style="display: block;" viewBox="0 0 27.999 27.994" fill="none" xmlns="http://www.w3.org/2000/svg">
<path id="Vector" d="M17.9745 17.9745L14.932 26.342C14.861 26.5334 14.7331 26.6984 14.5655 26.815C14.3979 26.9316 14.1987 26.994 13.9945 26.994C13.7904 26.994 13.5911 26.9316 13.4235 26.815C13.256 26.6984 13.1281 26.5334 13.057 26.342L10.0195 17.9745L1.65201 14.932C1.46064 14.861 1.29558 14.7331 1.17903 14.5655C1.06247 14.3979 1 14.1987 1 13.9945C1 13.7904 1.06247 13.5911 1.17903 13.4235C1.29558 13.256 1.46064 13.1281 1.65201 13.057L10.0195 10.0195L13.062 1.65201C13.1331 1.46064 13.261 1.29558 13.4285 1.17903C13.5961 1.06247 13.7954 1 13.9995 1C14.2037 1 14.4029 1.06247 14.5705 1.17903C14.7381 1.29558 14.866 1.46064 14.937 1.65201L17.9795 10.0195L26.347 13.062C26.5384 13.1331 26.7034 13.261 26.82 13.4285C26.9366 13.5961 26.999 13.7954 26.999 13.9995C26.999 14.2037 26.9366 14.4029 26.82 14.5705C26.7034 14.7381 26.5384 14.866 26.347 14.937L17.9745 17.9745Z" stroke="var(--stroke-0, white)" stroke-width="2" stroke-linecap="round" stroke-linejoin="round"/>
</svg>
