<svg preserveAspectRatio="none" width="100%" height="100%" overflow="visible" style="display: block;" viewBox="0 0 25 26.0008" fill="none" xmlns="http://www.w3.org/2000/svg">
<path id="Vector" d="M9.5 24.5008V16.5008H15.5V24.5008H23.5V12.5008C23.5001 12.3694 23.4743 12.2393 23.4241 12.1179C23.3739 11.9965 23.3003 11.8862 23.2075 11.7933L13.2075 1.79329C13.1146 1.70031 13.0043 1.62655 12.8829 1.57623C12.7615 1.5259 12.6314 1.5 12.5 1.5C12.3686 1.5 12.2385 1.5259 12.1171 1.57623C11.9957 1.62655 11.8854 1.70031 11.7925 1.79329L1.7925 11.7933C1.69967 11.8862 1.62605 11.9965 1.57586 12.1179C1.52568 12.2393 1.4999 12.3694 1.5 12.5008V24.5008H9.5Z" stroke="var(--stroke-0, white)" stroke-width="3" stroke-linecap="round" stroke-linejoin="round"/>
</svg>
