<svg width="84" height="100" viewBox="0 0 84 100" fill="none" xmlns="http://www.w3.org/2000/svg">
<path d="M0 0V84.7125C0 89.446 3.86294 93.3089 8.59639 93.3089H34.44C36.9427 93.6898 39.2278 95.1588 40.6424 97.2807L42.0026 99.3482L43.3628 97.2807C44.7774 95.1588 47.0081 93.6898 49.5109 93.3089H74.756C79.4894 93.3089 83.3524 89.446 83.3524 84.7125V0H0ZM74.8104 89.9901H49.4565H49.2388C46.5184 90.4253 43.9613 91.7311 42.057 93.7442C40.1528 91.7855 37.5412 90.4253 34.8208 89.9901H8.59639C5.65838 89.9901 3.31886 87.6506 3.31886 84.7125V3.31881H80.0879V84.7125C80.0879 87.6506 77.7484 89.9901 74.8104 89.9901Z" fill="white"/>
<path d="M39.7717 50.8175C39.8261 50.8719 39.8805 50.9263 39.9349 50.9807L39.7717 50.8175ZM28.6182 66.6501C32.5355 62.7872 36.4529 58.8698 40.3702 54.9525C40.4246 54.8981 40.479 54.8437 40.5334 54.7893L28.6182 66.6501Z" fill="white"/>
<path d="M71.2183 37.9223C70.7831 33.7873 67.8451 31.1214 63.7101 30.9037C62.5675 30.8493 62.4587 30.6861 62.4043 29.598C62.2411 26.4968 60.8265 24.1028 57.9429 22.7971C55.1137 21.4913 52.3932 21.8721 49.8905 23.7763C49.6728 23.9396 49.4552 24.1028 49.2376 24.266C48.9655 24.0484 48.6935 23.8852 48.3126 23.6132C47.8774 25.3542 47.4421 26.932 46.9525 28.7274C48.8023 28.2378 50.3801 27.8025 52.0668 27.3672C51.7947 26.9864 51.6315 26.7143 51.4139 26.4967C52.9917 24.4836 56.8003 24.8645 57.6709 26.3335C55.9842 26.4968 54.5696 27.2584 53.3725 28.401C53.0461 28.1833 52.8285 27.9658 52.4476 27.6937C52.0124 29.3804 51.5771 30.9582 51.1418 32.5904C51.1962 32.6448 51.2507 32.6992 51.3051 32.808C52.8829 32.3727 54.5152 31.9375 56.2019 31.5023C55.9298 31.1214 55.7122 30.8493 55.4401 30.5229C55.9842 30.142 56.4739 29.7612 57.018 29.4891C57.7797 29.1083 58.5414 29.2171 59.031 29.7612C59.5207 30.2508 59.6295 31.0126 59.1399 31.7743L43.3072 47.7701V24.538L44.3409 23.5043L43.1983 22.3617L43.7424 21.8177L44.9938 23.0691C45.2114 23.5044 45.7011 23.7763 46.1908 23.7763C46.9525 23.7763 47.5509 23.1779 47.5509 22.4161C47.5509 21.7633 47.0613 21.1648 46.4628 21.056C48.2038 20.6207 49.4552 19.0973 49.4552 17.2474C49.4552 16.2137 49.0199 15.2344 48.3671 14.5271L45.6467 17.2474H44.5041L43.4704 18.2812L43.0351 17.8459L44.3953 16.4857H44.9394C45.157 16.4857 45.157 16.7034 45.157 16.7034H45.3746V15.9417L44.885 15.452C45.2114 15.3432 45.2114 14.7447 44.9938 14.5815C44.7762 14.4182 44.5041 14.3094 44.5041 14.3094C44.5041 14.3094 44.3953 14.3094 44.1777 14.3094V13.8742H43.8512V14.3094H43.6336C43.3616 14.3094 43.1983 14.4183 43.1983 14.4183C42.6543 14.6359 42.8719 15.0712 42.9263 15.2344L42.5454 14.8535L42.8175 14.6359C43.1439 14.5271 43.1439 13.9286 42.9263 13.7653C42.7087 13.6021 42.4366 13.4933 42.4366 13.4933C42.4366 13.4933 42.3278 13.4933 42.1102 13.4933V13.0581H41.7837V13.4933H41.5661C41.2941 13.4933 41.1309 13.6022 41.1309 13.6022C40.478 13.8742 40.8588 14.4726 40.8588 14.4726L41.2941 14.908C41.2941 14.908 41.1308 15.0712 40.9132 15.2344C40.9676 15.0168 40.9676 14.7447 40.8044 14.6359C40.5868 14.4727 40.3147 14.3639 40.3147 14.3639C40.3147 14.3639 40.2059 14.3639 39.9883 14.3639V13.9286H39.6618V14.3639H39.4442C39.1722 14.3639 39.009 14.4726 39.009 14.4726C38.3561 14.7447 38.7369 15.3432 38.7369 15.3432L39.009 15.6152L38.5737 16.0505V16.8122H38.7913C38.7913 16.8122 38.7913 16.5946 39.009 16.5946H39.4442L40.75 17.9004L40.3147 18.39L39.281 17.3563H38.1384L35.4181 14.6359C34.7652 15.3432 34.3299 16.3226 34.3299 17.3563C34.3299 19.5326 36.0709 21.2736 38.2472 21.2736C38.6281 21.2736 38.9545 21.2192 39.3354 21.1104L39.553 21.328L38.3561 22.525L38.3017 22.5794C38.1384 22.5794 37.8664 22.5794 37.5944 22.6882L36.2886 21.3824C36.2886 21.328 36.343 21.2736 36.343 21.2192C36.343 20.9472 36.1254 20.7295 35.8533 20.7295C35.5813 20.7295 35.3637 20.9472 35.3637 21.2192C35.3637 21.4913 35.5813 21.7089 35.8533 21.7089C35.9077 21.7089 35.9621 21.7089 36.0165 21.7089L37.3223 23.0146C37.2135 23.2867 37.3223 23.6132 37.6488 23.9396C37.9752 24.2117 38.2473 24.2117 38.4649 24.1572L38.7913 24.4837L39.1178 24.1572L38.8457 23.8852C38.9001 23.722 38.9545 23.4499 38.9001 23.2323L40.2059 21.9265L40.75 22.4706L39.6074 23.6132L40.75 24.7557V47.8245L21.653 28.5098C20.4016 27.2585 20.6192 26.1703 22.3058 25.5718C25.135 24.5925 27.8554 24.8645 30.4126 26.3335C30.6302 26.4968 30.9022 26.66 31.1743 26.8776C30.9566 27.1497 30.7934 27.3129 30.6302 27.4761C30.0317 28.129 30.0861 28.2922 30.9022 28.5098C32.5889 28.9451 34.2211 29.3804 35.9077 29.87C36.1254 29.9244 36.2886 29.9244 36.6694 29.9788C36.071 27.8569 35.5813 25.8983 35.0372 23.9396C34.9284 23.5588 34.6564 23.5587 34.3843 23.7763C34.0579 24.0484 33.7314 24.3748 33.4594 24.6469C33.3506 24.5925 33.2962 24.5924 33.2418 24.5924C33.0241 24.4292 32.8065 24.2661 32.5889 24.1572C28.2907 21.4913 23.8837 21.328 19.4222 23.7219C18.4429 24.266 17.5724 24.6469 16.4298 24.538C15.7769 24.4836 15.5049 24.7557 15.6137 25.4086C15.7225 26.4967 15.3961 27.3673 14.852 28.2922C12.4037 32.6448 12.5669 36.9974 15.124 41.2956C15.7225 42.3294 15.7769 42.3294 15.0152 43.1999C14.6888 43.5807 14.6344 43.9072 15.2329 44.0704C16.9739 44.5601 18.7694 45.0497 20.5104 45.4849C21.0001 45.5938 21.1633 45.4305 21.0545 44.9409C20.5648 43.1998 20.1295 41.4044 19.6399 39.6634C19.4766 39.1737 19.2046 39.1193 18.8238 39.4458C18.5517 39.6634 18.3341 39.881 17.9532 40.2075C17.8444 40.0442 17.8444 39.9354 17.79 39.881C17.6812 39.7177 17.5724 39.5546 17.4636 39.3914C15.9946 36.8342 15.7769 34.1138 16.7563 31.339C17.3548 29.6523 18.4429 29.4348 19.6943 30.6861L39.9339 50.8713L40.0971 51.0346L26.604 64.6909C26.1144 65.1805 25.7879 65.2893 25.0806 65.0173C20.7824 63.113 15.9402 66.3231 16.049 70.9477C16.1034 73.5593 17.6812 75.8988 20.0751 76.8237C22.5235 77.8031 25.2983 77.259 27.0937 75.4092C28.9436 73.5593 29.542 70.7845 28.4539 68.3906C28.1274 67.6289 28.2907 67.248 28.8347 66.7039L40.75 54.8431L41.1853 54.4078V74.593C40.4236 74.9739 39.9339 75.7356 39.9339 76.6605C39.9339 77.9663 40.9676 79 42.2734 79C43.5792 79 44.6129 77.9663 44.6129 76.6605C44.6129 75.8444 44.1777 75.0827 43.5248 74.7019V54.5167L53.2093 64.2012C52.23 65.1805 51.2507 66.1055 50.3257 67.0304C48.6391 68.8258 48.5303 68.1185 50.3801 70.0228C50.761 70.4037 51.033 70.3492 51.3595 70.0228C52.2844 69.0979 53.2637 68.1185 54.1887 67.1936C54.5152 66.8672 54.8417 66.5407 55.1681 66.2687C56.5283 67.248 56.5283 67.3024 56.0386 68.717C54.9505 71.7638 56.2018 75.1371 59.0854 76.6061C61.9146 78.1295 65.4511 77.259 67.3554 74.7019C69.2053 72.0903 68.8788 68.4994 66.5937 66.2687C64.6894 64.4732 61.9146 63.9836 59.3575 65.1261C59.0854 65.2349 58.7046 65.2893 58.487 65.1805C58.0517 64.9085 57.7797 64.4732 57.3444 64.0924C57.6164 63.8203 57.7797 63.6027 57.9973 63.4395C59.031 62.4058 60.0648 61.3176 61.1529 60.2839C61.5882 59.903 61.5882 59.5766 61.1529 59.1957C60.8265 58.9237 60.5 58.5972 60.228 58.2708C59.8472 57.8355 59.5751 57.8355 59.1399 58.2708C58.3782 59.0869 57.6164 59.7942 56.8547 60.5559C56.3651 61.0456 55.9842 61.5896 55.549 62.1337C51.7947 58.3252 48.2038 54.7343 44.6129 51.089C44.6673 51.0346 44.7762 50.9258 44.885 50.7625L44.9394 50.7081C50.1081 45.5394 55.2769 40.3706 60.5 35.2019C60.9897 34.7123 61.6426 34.3314 62.2955 34.0594C63.3836 33.6241 64.4174 34.4403 64.3086 35.6372C64.2542 36.5622 63.6557 37.2694 63.0028 37.8679C62.7308 37.6503 62.4587 37.4871 62.0779 37.2151C61.6426 38.9017 61.2073 40.5339 60.7177 42.3293C62.5675 41.8396 64.1454 41.4044 65.8864 40.9691C65.6144 40.5883 65.3967 40.3162 65.1791 40.0442C66.3217 38.8472 67.0834 37.3782 67.2466 35.746C68.8788 36.8341 68.9332 40.7515 67.0289 41.9485C66.8113 41.7852 66.5393 41.6221 66.2128 41.35C65.7776 43.0367 65.3423 44.6689 64.8526 46.4643C66.7025 45.9747 68.2803 45.5394 69.9126 45.1041C69.4229 44.1248 69.4229 44.1248 70.0758 43.2543C70.8919 41.5677 71.436 39.8266 71.2183 37.9223ZM44.6129 21.0016C44.9394 21.1104 45.3202 21.1648 45.7011 21.1648H45.7555C45.4835 21.3281 45.2114 21.5456 45.1026 21.8177L44.4497 21.1648L44.6129 21.0016ZM22.3058 74.2666C20.3472 74.2666 18.8782 72.7432 18.8782 70.7845C18.8782 68.8802 20.4016 67.3568 22.3058 67.3568C24.2645 67.3568 25.7879 68.8802 25.7879 70.7845C25.7879 72.7432 24.2645 74.2666 22.3058 74.2666ZM42.3822 16.4857L42.1102 16.7578L41.2397 15.8872L42.1102 15.0167L42.9807 15.8872L42.3822 16.4857ZM61.9691 67.3568C63.8733 67.3568 65.3967 68.8802 65.3967 70.7845C65.3967 72.7432 63.8733 74.2666 61.9146 74.2666C59.956 74.2666 58.4326 72.6888 58.4326 70.7845C58.487 68.8802 60.0104 67.3568 61.9691 67.3568Z" fill="white"/>
</svg>
